<?xml version="1.0" encoding="UTF-8"?>
<svg version="1.1" xmlns="http://www.w3.org/2000/svg" width="2000" height="292">
<path d="M0 0 C5.31486528 3.23475217 7.61691386 8.07320118 10.5 13.375 C11.55308512 15.26521653 12.60782986 17.15450921 13.6640625 19.04296875 C14.20836914 20.02056152 14.75267578 20.9981543 15.31347656 22.00537109 C18.09409344 26.94269688 20.98256276 31.81510066 23.875 36.6875 C24.39771484 37.57034668 24.92042969 38.45319336 25.45898438 39.36279297 C28.95154662 45.25454527 32.47095621 51.13003954 36 57 C38.76390525 53.67798768 41.08024189 50.35262839 43.21484375 46.59765625 C44.111427 45.02975342 44.111427 45.02975342 45.02612305 43.43017578 C45.65687744 42.31884277 46.28763184 41.20750977 46.9375 40.0625 C47.93652954 38.3187081 48.93557127 36.57492286 49.93574524 34.83178711 C50.61591697 33.64631435 51.29567343 32.46060324 51.97502136 31.2746582 C55.35373045 25.37652453 58.75550449 19.49231688 62.1875 13.625 C62.71529053 12.71113525 63.24308105 11.79727051 63.78686523 10.85571289 C68.62241398 2.61513517 68.62241398 2.61513517 72 0 C75.4375 -0.5625 75.4375 -0.5625 79 0 C84.11704477 4.11569936 86.78154405 9.55024275 89.875 15.25 C94.55416104 23.70330746 99.36927731 32.04834753 104.375 40.3125 C110.21238674 49.96889982 115.90015989 59.70167016 121.51953125 69.48632812 C125.93990149 77.17814147 130.42115855 84.8308193 134.94580078 92.46166992 C139.48928096 100.12629347 143.99803939 107.81095534 148.5 115.5 C153.5445816 124.11482359 158.60125142 132.72218158 163.6875 141.3125 C168.40138807 149.27631722 173.08488847 157.25750942 177.75 165.25 C178.6639856 166.81488159 178.6639856 166.81488159 179.59643555 168.41137695 C180.43815308 169.85516724 180.43815308 169.85516724 181.296875 171.328125 C181.79541992 172.1830957 182.29396484 173.03806641 182.80761719 173.91894531 C184.9290281 177.62142415 185.64302885 179.65955528 185 184 C180.32141593 190.54578111 174.01020679 196.13226648 168.33276367 201.79663086 C167.37911724 202.75163548 166.42568298 203.70685201 165.47244263 204.66226196 C162.90694324 207.23228223 160.33833711 209.79917545 157.7689836 212.3653419 C155.07383914 215.05793937 152.3811525 217.75299302 149.68806458 220.44764709 C145.17347675 224.96404794 140.65679814 229.47834978 136.13891602 233.99145508 C130.91380537 239.21110496 125.69233353 244.43437418 120.47269839 249.65949911 C115.98353112 254.15319871 111.4924253 258.64495389 106.99968129 263.13507754 C104.31925264 265.81394662 101.6395057 268.49348827 98.9615078 271.17478752 C96.44962403 273.68955239 93.93532111 276.20187284 91.41910172 278.71229935 C90.0533432 280.07609878 88.69005414 281.44236981 87.326828 282.80870056 C86.51802185 283.61468689 85.7092157 284.42067322 84.87590027 285.25108337 C84.17152423 285.95508239 83.46714819 286.6590814 82.74142742 287.38441372 C80.36393948 289.59009674 79.13004949 289.97919208 75.875 290.5 C66.00548421 289.22651409 56.84372708 275.95381531 50 269.0625 C48.7359115 267.79338627 47.47159044 266.52450411 46.20703125 265.25585938 C43.13533276 262.1732368 40.06679992 259.08749572 37 256 C32.36032559 259.87327165 27.97335059 263.8969133 23.734375 268.203125 C23.17429749 268.76698914 22.61421997 269.33085327 22.03717041 269.9118042 C20.27229398 271.68875828 18.51074358 273.46895131 16.75 275.25 C14.41434958 277.61226391 12.07538753 279.97117626 9.734375 282.328125 C9.20309998 282.86769836 8.67182495 283.40727173 8.12445068 283.9631958 C2.36711127 289.75874507 2.36711127 289.75874507 -2.1875 290.5625 C-6.16004571 289.9763867 -6.82206567 289.62497935 -9.62599182 287.06904602 C-10.32683458 286.43023813 -11.02767735 285.79143024 -11.74975777 285.13326454 C-15.83094828 281.26423263 -19.82481692 277.31374834 -23.79663086 273.33276367 C-24.75163548 272.37911724 -25.70685201 271.42568298 -26.66226196 270.47244263 C-29.23228223 267.90694324 -31.79917545 265.33833711 -34.3653419 262.7689836 C-37.05793937 260.07383914 -39.75299302 257.3811525 -42.44764709 254.68806458 C-46.96404794 250.17347675 -51.47834978 245.65679814 -55.99145508 241.13891602 C-61.21110496 235.91380537 -66.43437418 230.69233353 -71.65949911 225.47269839 C-76.15319871 220.98353112 -80.64495389 216.4924253 -85.13507754 211.99968129 C-87.81394662 209.31925264 -90.49348827 206.6395057 -93.17478752 203.9615078 C-95.68955239 201.44962403 -98.20187284 198.93532111 -100.71229935 196.41910172 C-102.07609878 195.0533432 -103.44236981 193.69005414 -104.80870056 192.326828 C-105.61468689 191.51802185 -106.42067322 190.7092157 -107.25108337 189.87590027 C-108.30708189 188.81933621 -108.30708189 188.81933621 -109.38441372 187.74142742 C-111.57373183 185.38157909 -111.97159084 184.21348241 -112.40234375 180.9765625 C-111.84671965 175.48505438 -109.47025798 171.98373727 -106.5625 167.375 C-105.35950815 165.4056615 -104.15774739 163.43557059 -102.95703125 161.46484375 C-102.31330566 160.41796387 -101.66958008 159.37108398 -101.00634766 158.29248047 C-97.87520811 153.15418064 -94.84555385 147.95736009 -91.81381226 142.76010132 C-90.01534685 139.67883825 -88.21025417 136.60145976 -86.40625 133.5234375 C-85.67312543 132.27184015 -84.94005265 131.02021247 -84.20703125 129.76855469 C-83.84303223 129.14702515 -83.4790332 128.52549561 -83.10400391 127.88513184 C-82.73968262 127.26303833 -82.37536133 126.64094482 -82 126 C-79.08383953 121.02053669 -76.1673632 116.04125878 -73.25 111.0625 C-72.89329224 110.45373016 -72.53658447 109.84496033 -72.16906738 109.21774292 C-67.11304216 100.59030027 -62.03620733 91.97539175 -56.94335938 83.36962891 C-52.52732041 75.90292923 -48.13601992 68.42185209 -43.75 60.9375 C-43.03117171 59.71134259 -42.31234032 58.48518699 -41.59350586 57.2590332 C-38.26197891 51.57498044 -34.93389093 45.88896484 -31.61494446 40.19755554 C-17.89597119 16.67313113 -17.89597119 16.67313113 -12.0625 7.25 C-11.66748291 6.60635498 -11.27246582 5.96270996 -10.86547852 5.29956055 C-7.74566609 0.32830689 -5.92087796 -0.58047823 0 0 Z M-3 24 C-4.42842821 26.10137662 -5.78735611 28.21604643 -7.125 30.375 C-7.78109253 31.42892944 -7.78109253 31.42892944 -8.45043945 32.50415039 C-13.17754061 40.17198125 -17.63983756 47.99117489 -22.11767578 55.80615234 C-26.49096804 63.42530714 -30.95771836 70.98050953 -35.5 78.5 C-41.29265089 88.09566199 -46.93790252 97.76761821 -52.52001953 107.48706055 C-56.93505224 115.16986283 -61.41057246 122.81378001 -65.93041992 130.43530273 C-71.35160512 139.57946056 -76.72227919 148.75297105 -82.08935547 157.92895508 C-82.43369629 158.51675247 -82.77803711 159.10454987 -83.1328125 159.7101593 C-84.12926596 161.41367178 -85.12108572 163.11989201 -86.11279297 164.82617188 C-87.33853252 166.88757085 -88.60157747 168.92739984 -89.90673828 170.93945312 C-90.47505371 171.82052734 -91.04336914 172.70160156 -91.62890625 173.609375 C-92.13623291 174.36702148 -92.64355957 175.12466797 -93.16625977 175.90527344 C-94.2587344 177.96220438 -94.2587344 177.96220438 -93.27831459 179.88968277 C-91.86414661 182.2242748 -90.31362117 183.93233269 -88.38070679 185.85980225 C-87.62909775 186.61416061 -86.87748871 187.36851898 -86.10310364 188.14573669 C-85.27807846 188.96357132 -84.45305328 189.78140594 -83.60302734 190.62402344 C-82.73466751 191.49267532 -81.86630768 192.36132721 -80.97163391 193.25630188 C-78.59317713 195.63360473 -76.21037174 198.00638497 -73.8255229 200.37726498 C-71.33287405 202.85740465 -68.8458942 205.34321567 -66.35830688 207.82843018 C-61.64850647 212.53201638 -56.93363139 217.23048141 -52.21691096 221.92712712 C-46.84663682 227.27504045 -41.48204593 232.62863925 -36.11792445 237.98272276 C-25.08492704 248.9948195 -14.04481573 259.99975596 -3 271 C-1.88918688 270.05536612 -0.77944651 269.1094707 0.32984924 268.16305542 C0.94795251 267.63644758 1.56605577 267.10983974 2.20288944 266.56727409 C4.66633102 264.41888753 6.97364767 262.13831725 9.27734375 259.8203125 C10.20224609 258.8921875 11.12714844 257.9640625 12.08007812 257.0078125 C13.03260849 256.04693091 13.98508178 255.08599274 14.9375 254.125 C15.91708237 253.14039081 16.89689837 252.156014 17.87695312 251.171875 C20.25360252 248.78351797 22.62787356 246.39284788 25 244 C20.01334404 237.92273109 14.52448401 232.40634981 8.95119286 226.87602806 C7.26356528 225.20128985 5.57919212 223.52333716 3.89558411 221.84455872 C0.32904153 218.28936886 -3.24144877 214.7381603 -6.8125 211.1875 C-10.96997241 207.05364012 -15.12580474 202.91815831 -19.27747154 198.77846718 C-20.93790127 197.124524 -22.60130905 195.47361593 -24.2648468 193.82279968 C-25.27672746 192.81454942 -26.28846919 191.8061597 -27.30004883 190.79760742 C-28.18574051 189.91715256 -29.07143219 189.03669769 -29.98396301 188.12956238 C-32.2362197 185.7504785 -32.89534595 184.68500835 -33.38671875 181.46875 C-32.82125148 176.39667991 -30.41777944 172.822715 -27.8125 168.5 C-26.99881958 167.11458008 -26.99881958 167.11458008 -26.16870117 165.70117188 C-24.45762885 162.79360219 -22.7293788 159.8967095 -21 157 C-19.96742253 155.25078294 -18.93613463 153.50080387 -17.90625 151.75 C-15.79416082 148.16283821 -13.67488076 144.58006237 -11.55078125 141 C-7.87760197 134.80261776 -4.23513492 128.58737762 -0.59518433 122.37045288 C5.0072879 112.80205416 10.61587613 103.23730717 16.25 93.6875 C16.76240234 92.81738281 17.27480469 91.94726562 17.80273438 91.05078125 C18.28548828 90.23351562 18.76824219 89.41625 19.265625 88.57421875 C19.71873047 87.80255371 20.17183594 87.03088867 20.63867188 86.23583984 C21.55401061 84.73249118 22.50976146 83.25309008 23.50195312 81.79931641 C23.97052734 81.1088623 24.43910156 80.4184082 24.921875 79.70703125 C25.3456543 79.10995361 25.76943359 78.51287598 26.20605469 77.89770508 C27.32101997 75.23269119 26.83823028 73.73198069 26 71 C24.95043639 68.7671853 24.95043639 68.7671853 23.5859375 66.578125 C22.82555176 65.30412842 22.82555176 65.30412842 22.04980469 64.00439453 C21.22077637 62.64096924 21.22077637 62.64096924 20.375 61.25 C19.8068457 60.30366699 19.23869141 59.35733398 18.65332031 58.38232422 C17.42697886 56.34074819 16.19769634 54.30093658 14.96582031 52.26269531 C12.90815696 48.84756701 10.87015274 45.42130166 8.8359375 41.9921875 C7.47460441 39.70274016 6.11222961 37.41391419 4.75 35.125 C4.09435059 34.01930664 3.43870117 32.91361328 2.76318359 31.77441406 C1.85173584 30.25025879 1.85173584 30.25025879 0.921875 28.6953125 C0.38143555 27.78797363 -0.15900391 26.88063477 -0.71582031 25.94580078 C-1.35148926 24.98262939 -1.35148926 24.98262939 -2 24 C-2.33 24 -2.66 24 -3 24 Z M75 24 C68.1692387 35.26783702 61.50770915 46.63384649 54.85375977 58.0065918 C54.4907225 58.62695816 54.12768524 59.24732452 53.75364685 59.88648987 C52.75484962 61.59355629 51.75655912 63.30091917 50.75830078 65.00830078 C49.62419462 66.93795045 48.46096199 68.85091325 47.26318359 70.74169922 C45.78495857 72.92387149 45.78495857 72.92387149 46.09375 75.4375 C47.21120181 78.59719133 48.72069041 81.15310465 50.5 84 C51.31966091 85.33083063 52.13717062 86.66298737 52.953125 87.99609375 C53.42556641 88.76679199 53.89800781 89.53749023 54.38476562 90.33154297 C57.3587757 95.24477303 60.24570596 100.20954303 63.14306641 105.16821289 C65.00481556 108.35421017 66.86956056 111.53845245 68.734375 114.72265625 C69.10115356 115.34902985 69.46793213 115.97540344 69.8458252 116.62075806 C73.04926922 122.08916655 76.27122912 127.54650846 79.5 133 C85.48209137 143.10496177 91.42099745 153.23502538 97.35351562 163.36914062 C97.70626556 163.97153061 98.0590155 164.57392059 98.42245483 165.19456482 C99.38360815 166.83602725 100.34440423 168.47769885 101.30517578 170.11938477 C102.40648207 171.99122471 103.5414565 173.84379927 104.71435547 175.67163086 C106 178 106 178 106.125 181.3125 C103.2755486 190.65236847 93.2107151 197.9209648 86.37890625 204.71875 C85.26767877 205.82810833 84.15667488 206.93769067 83.04588318 208.04748535 C80.14655629 210.94302616 77.24423728 213.83554907 74.34124756 216.72741699 C71.36953694 219.68882864 68.40071733 222.65313554 65.43164062 225.6171875 C59.6238918 231.4142681 53.81297327 237.2081582 48 243 C51.57746882 247.25889835 55.23127765 251.3533068 59.1796875 255.27734375 C60.571875 256.66469727 60.571875 256.66469727 61.9921875 258.08007812 C62.95306909 259.03260849 63.91400726 259.98508178 64.875 260.9375 C65.85960919 261.91708237 66.843986 262.89689837 67.828125 263.87695312 C70.21648203 266.25360252 72.60715212 268.62787356 75 271 C80.48332769 266.42894581 85.56298829 261.57405459 90.59741211 256.51611328 C91.84252563 255.2712188 91.84252563 255.2712188 93.11279297 254.00117493 C95.83668894 251.27658621 98.55703263 248.54848005 101.27734375 245.8203125 C103.17284179 243.92294801 105.06853607 242.02578166 106.9644928 240.12887573 C111.43222586 235.65804566 115.89740564 231.18467466 120.36165386 226.71036518 C125.44799929 221.61280773 130.53721486 216.51811981 135.62666309 211.42366052 C146.08761876 200.95227742 156.54499952 190.47732907 167 180 C165.56893482 176.33520886 163.95560496 173.00411954 161.98046875 169.59765625 C161.37734863 168.55440186 160.77422852 167.51114746 160.15283203 166.4362793 C159.17999268 164.76625854 159.17999268 164.76625854 158.1875 163.0625 C157.50616681 161.88788158 156.82501701 160.71315675 156.14404297 159.53833008 C150.95968129 150.60494842 145.71285056 141.70875175 140.4453125 132.82421875 C136.43984113 126.06336881 132.47058372 119.28136625 128.5 112.5 C123.51656495 103.99015934 118.52332834 95.48638045 113.5 87 C108.84596074 79.13749429 104.21685458 71.26060933 99.59939575 63.37658691 C98.51013993 61.5173081 97.42012794 59.6584749 96.32983398 57.79980469 C95.61440925 56.58008477 94.89899577 55.36035825 94.18359375 54.140625 C93.8325206 53.54207703 93.48144745 52.94352905 93.11973572 52.32684326 C90.77144578 48.32125491 88.43306952 44.30998996 86.09765625 40.296875 C84.91940198 38.28117334 83.74102404 36.26554395 82.5625 34.25 C82.02496094 33.32123047 81.48742188 32.39246094 80.93359375 31.43554688 C80.44117188 30.59572266 79.94875 29.75589844 79.44140625 28.890625 C79.01545166 28.15875977 78.58949707 27.42689453 78.15063477 26.67285156 C77.09146805 24.84427945 77.09146805 24.84427945 75 24 Z M36 90 C35.57404541 90.72662842 35.14809082 91.45325684 34.70922852 92.2019043 C34.10522217 93.23226807 33.50121582 94.26263184 32.87890625 95.32421875 C32.54787399 95.88892883 32.21684174 96.45363892 31.8757782 97.03546143 C29.99961675 100.2360056 28.12339386 103.43651374 26.24707031 106.63696289 C22.34449997 113.29372946 18.44266791 119.95092596 14.54296875 126.609375 C7.95828282 137.85137709 1.3693425 149.09085552 -5.25 160.3125 C-6.01908691 161.61852173 -6.01908691 161.61852173 -6.80371094 162.95092773 C-7.28614258 163.76762939 -7.76857422 164.58433105 -8.265625 165.42578125 C-8.71744141 166.19615723 -9.16925781 166.9665332 -9.63476562 167.76025391 C-10.56022348 169.27852114 -11.52978315 170.77060897 -12.53710938 172.23583984 C-13.25350586 173.28505615 -13.25350586 173.28505615 -13.984375 174.35546875 C-14.41975586 174.96414795 -14.85513672 175.57282715 -15.30371094 176.19995117 C-16.22523444 177.99516523 -16.22523444 177.99516523 -15.34457397 179.79725647 C-13.61854822 182.62491202 -11.53282746 184.70603097 -9.18310547 187.04394531 C-8.69513489 187.53220795 -8.20716431 188.02047058 -7.70440674 188.52352905 C-6.09669725 190.12984962 -4.48202899 191.72897713 -2.8671875 193.328125 C-1.74859765 194.44298317 -0.63044971 195.55828487 0.48727417 196.67401123 C3.42559325 199.60470609 6.36986955 202.52934422 9.31542969 205.45275879 C12.32198262 208.43882725 15.32285882 211.43058859 18.32421875 214.421875 C24.21060686 220.28683456 30.103301 226.14540732 36 232 C42.28513004 226.81239418 48.00311158 221.12572734 53.74609375 215.3515625 C54.76720048 214.32858694 55.788531 213.30583472 56.81007385 212.28329468 C59.47711353 209.61246639 62.14113436 206.93864718 64.80450439 204.26416016 C67.5312385 201.52713264 70.26086305 198.79299099 72.99023438 196.05859375 C78.32963089 190.70852452 83.66583652 185.35528727 89 180 C88.06079077 178.10254711 87.11935384 176.20619681 86.17700195 174.31030273 C85.65298294 173.25415268 85.12896393 172.19800262 84.58906555 171.10984802 C82.30752569 166.64480741 79.77403561 162.3557522 77.1875 158.0625 C76.04494344 156.14751084 74.90305178 154.23212488 73.76171875 152.31640625 C73.15634277 151.3020752 72.5509668 150.28774414 71.92724609 149.24267578 C68.78948978 143.96326366 65.68999533 138.66154739 62.58886719 133.36056519 C60.78651878 130.28086297 58.9809363 127.20305765 57.17578125 124.125 C54.50179738 119.56523969 51.83332418 115.00231212 49.16796875 110.4375 C48.00800658 108.45821958 46.8478616 106.47904628 45.6875 104.5 C44.90632813 103.15711914 44.90632813 103.15711914 44.109375 101.78710938 C43.62339844 100.96017578 43.13742187 100.13324219 42.63671875 99.28125 C42.22123779 98.57033203 41.80575684 97.85941406 41.37768555 97.12695312 C39.74615739 94.60810264 37.90465277 92.31690101 36 90 Z " fill="#38CCCC" transform="translate(1811,2)"/>
<path d="M0 0 C12.54 0 25.08 0 38 0 C44.26305383 20.04556039 50.35723339 40.1303569 56.31990814 60.26659775 C57.49470372 64.23255585 58.67145972 68.19793216 59.84814453 72.16333008 C60.09011377 72.97877006 60.33208302 73.79421003 60.58138466 74.63436031 C61.07699413 76.30456236 61.57261046 77.97476238 62.06823349 79.6449604 C62.82448515 82.19375056 63.58048801 84.74261443 64.3364563 87.29148865 C68.02347239 99.72096902 71.72383346 112.14643699 75.4296875 124.5703125 C94.20626299 187.52590391 94.20626299 187.52590391 102.40460205 215.59024048 C103.08273405 217.91092815 103.76217595 220.23123353 104.4430542 222.55111694 C105.36098998 225.681246 106.27325252 228.81296757 107.18359375 231.9453125 C107.57388512 233.27199196 107.57388512 233.27199196 107.97206116 234.62547302 C109.63232394 240.37356854 110.89166923 246.11977164 112 252 C115.3 251.67 118.6 251.34 122 251 C122.17837402 250.31454102 122.35674805 249.62908203 122.54052734 248.92285156 C128.37759475 226.67104764 134.94385908 204.65087277 141.58642578 182.62841797 C142.39104984 179.96064192 143.19555815 177.292831 144 174.625 C144.20290524 173.95224155 144.40581047 173.27948311 144.61486435 172.58633804 C149.33350561 156.93657497 153.96980741 141.2627125 158.59735489 125.58581543 C160.56777659 118.91107195 162.53978911 112.23679811 164.51171875 105.5625 C164.7318482 104.81737152 164.95197765 104.07224304 165.17877769 103.30453491 C170.54555092 85.13967228 175.93710293 66.98218191 181.33396912 48.82624054 C182.05533846 46.39909598 182.77643099 43.97186935 183.49743652 41.5446167 C184.63117764 37.72801593 185.76558347 33.91161336 186.90051842 30.09536743 C187.31448837 28.70309325 187.72826622 27.31076193 188.14182472 25.91836548 C188.7138216 23.99276156 189.2867085 22.06742209 189.85961914 20.14208984 C190.17822403 19.07050629 190.49682892 17.99892273 190.8250885 16.89486694 C192.52610029 11.25596173 194.26786947 5.62942421 196 0 C208.54 0 221.08 0 234 0 C231.74994044 10.12526801 231.74994044 10.12526801 230.30200195 14.73828125 C229.9750383 15.78627899 229.64807465 16.83427673 229.311203 17.91403198 C228.95713882 19.03552643 228.60307465 20.15702087 228.23828125 21.3125 C227.860168 22.5204422 227.48205475 23.7283844 227.09248352 24.97293091 C226.05496954 28.28690142 225.01276568 31.59938003 223.96967316 34.91159821 C222.85196687 38.46350805 221.73857022 42.01676894 220.62451172 45.56982422 C217.99718522 53.94560128 215.36266342 62.31910681 212.72655487 70.69212341 C212.00866378 72.9724798 211.29095132 75.25289233 210.57330322 77.5333252 C206.29354177 91.13273417 202.01098713 104.73126167 197.72314453 118.328125 C197.48286026 119.09007549 197.24257599 119.85202599 196.99501038 120.63706589 C196.75457504 121.39949223 196.51413971 122.16191856 196.26641846 122.94744873 C191.46018891 138.18821124 186.66054763 153.43101793 181.87260437 168.67753601 C181.40441227 170.16840727 180.93621668 171.65927743 180.46801758 173.15014648 C180.23733802 173.88470408 180.00665846 174.61926168 179.76898861 175.37607861 C178.16721218 180.47558456 176.56219492 185.57406309 174.95581055 190.67211914 C174.05886283 193.51962502 173.16215727 196.36720705 172.265625 199.21484375 C172.04612497 199.91194773 171.82662495 200.6090517 171.6004734 201.32728004 C168.72913112 210.45034301 165.88819716 219.58225406 163.07621765 228.7237854 C161.62652006 233.43593871 160.16684519 238.14498173 158.7044878 242.85321999 C157.73084199 245.9906621 156.76492288 249.13017204 155.80941772 252.27319336 C154.7710247 255.68792621 153.71388052 259.09631013 152.65234375 262.50390625 C152.35434875 263.50241104 152.05635376 264.50091583 151.74932861 265.52967834 C150.05893315 270.88117819 148.55043872 274.42284359 144 278 C143.27611084 278.58990723 142.55222168 279.17981445 141.80639648 279.78759766 C137.60126123 281.60427462 133.6316769 281.42843662 129.09765625 281.3984375 C128.14233505 281.40130768 127.18701385 281.40417786 126.20274353 281.40713501 C124.18634446 281.40917258 122.16992549 281.40366425 120.15356445 281.39111328 C117.076533 281.37507315 114.00081854 281.39096351 110.92382812 281.41015625 C108.96093461 281.40817342 106.99804192 281.40432892 105.03515625 281.3984375 C104.11936295 281.40451019 103.20356964 281.41058289 102.26002502 281.4168396 C97.11131364 281.3605079 93.38537045 280.98889346 89 278 C85.96398755 274.62655418 84.29003039 271.70593387 82.93554688 267.3894043 C82.57915131 266.27237122 82.22275574 265.15533813 81.8555603 264.00445557 C81.4804129 262.78997742 81.1052655 261.57549927 80.71875 260.32421875 C80.30990811 259.02841055 79.90010344 257.73290579 79.4894104 256.43768311 C78.37934755 252.92718431 77.28299575 249.4125376 76.18906403 245.8969841 C75.02444412 242.16262988 73.84713055 238.43227952 72.67138672 234.70141602 C70.23573567 226.96474749 67.81517967 219.22341984 65.39880371 211.48071289 C64.0784477 207.25007465 62.75512821 203.02036931 61.43066406 198.79101562 C58.16990355 188.3775249 54.91146943 177.96331815 51.6640625 167.5456543 C45.79802153 148.72903925 39.88982055 129.92600779 33.96020508 111.1293335 C29.87773572 98.1875853 25.80071604 85.24411754 21.72447205 72.30040741 C21.23843696 70.75710603 20.75236267 69.21381699 20.26625061 67.67053986 C17.38530939 58.52428284 14.50711232 49.37717748 11.63772202 40.2272892 C10.52930261 36.69287812 9.41960982 33.15888097 8.30639648 29.62597656 C7.08784319 25.75854547 5.87563509 21.88915492 4.6640625 18.01953125 C4.30482697 16.88252274 3.94559143 15.74551422 3.57546997 14.5740509 C3.24844086 13.52585678 2.92141174 12.47766266 2.58447266 11.39770508 C2.15891586 10.04253532 2.15891586 10.04253532 1.72476196 8.6599884 C0.95099836 5.82015641 0.48388506 2.90331037 0 0 Z " fill="#FFFFFF" transform="translate(4,6)"/>
<path d="M0 0 C1.39954422 -0.01191879 1.39954422 -0.01191879 2.82736206 -0.02407837 C21.68734563 -0.14805714 41.7208589 1.22153863 56.65625 14.14453125 C71.37169625 28.93769993 73.04566485 48.21183884 72.99420547 68.01861572 C72.99233105 68.7042157 72.99045662 69.38981567 72.98852539 70.09619141 C72.98824278 71.55577594 72.9884027 73.01536062 72.9889679 74.47494507 C72.98925297 78.40812443 72.98340325 82.34127284 72.97639394 86.27444506 C72.970112 90.39572013 72.96955279 94.51699603 72.96836853 98.63827515 C72.96526942 106.42946171 72.95707529 114.22063412 72.94701904 122.01181448 C72.93581365 130.887329 72.93033633 139.76284423 72.92532361 148.63836408 C72.9148914 166.88391739 72.89731963 185.12945755 72.875 203.375 C68.90569011 203.39965881 64.93640966 203.41784023 60.96704102 203.42993164 C59.61579614 203.43497057 58.26455674 203.44180177 56.91333008 203.45043945 C54.97479566 203.46252419 53.036222 203.46769828 51.09765625 203.47265625 C49.92984619 203.47789307 48.76203613 203.48312988 47.55883789 203.48852539 C44.875 203.375 44.875 203.375 43.875 202.375 C43.50404629 200.16227715 43.19093735 197.9398073 42.90234375 195.71484375 C42.81497452 195.05037735 42.72760529 194.38591095 42.6375885 193.7013092 C42.35857153 191.57220444 42.08547638 189.44238683 41.8125 187.3125 C41.62473755 185.8716941 41.43659151 184.43093813 41.24804688 182.99023438 C40.78590674 179.45239222 40.32907568 175.91388728 39.875 172.375 C39.23578613 172.96595459 38.59657227 173.55690918 37.93798828 174.16577148 C33.07628964 178.60985919 28.27705693 182.84706132 22.75 186.4375 C22.11876221 186.85032227 21.48752441 187.26314453 20.8371582 187.68847656 C-3.78595552 203.45066689 -30.98538033 211.13724036 -60.125 205.375 C-74.09039235 201.24461052 -85.61116657 194.77135519 -93.10546875 182 C-98.31207739 172.23152325 -100.43223382 163.55220461 -100.4609375 152.546875 C-100.4675943 151.63601135 -100.4742511 150.72514771 -100.48110962 149.78668213 C-100.49117234 147.87066649 -100.49592863 145.95461625 -100.49560547 144.03857422 C-100.49996802 141.14620594 -100.5363267 138.25537948 -100.57421875 135.36328125 C-100.66153823 121.09034768 -99.44032323 108.88883018 -90.125 97.375 C-89.64675781 96.76140625 -89.16851563 96.1478125 -88.67578125 95.515625 C-81.77715354 87.66126801 -71.59385234 83.43090366 -61.46899414 81.69018555 C-60.74165856 81.56476977 -60.01432299 81.439354 -59.26494694 81.31013775 C-49.87675478 79.84400966 -40.4723247 80.00146857 -30.99609375 80.08203125 C-29.02499214 80.08764326 -27.05388627 80.09190574 -25.08277893 80.09489441 C-19.95529126 80.10621705 -14.82806837 80.13557212 -9.70068359 80.16900635 C-4.44437235 80.19998235 0.81198269 80.2134579 6.06835938 80.22851562 C16.33735439 80.26045696 26.60615497 80.31149622 36.875 80.375 C36.79284006 76.60335932 36.68012594 72.83318803 36.5625 69.0625 C36.53994141 68.00998047 36.51738281 66.95746094 36.49414062 65.87304688 C36.16238611 56.07120885 34.8055565 47.35057599 28.875 39.375 C28.875 38.715 28.875 38.055 28.875 37.375 C27.2119416 36.69938252 25.54405395 36.03566719 23.875 35.375 C22.93333984 34.99601562 22.93333984 34.99601562 21.97265625 34.609375 C21.30105469 34.34640625 20.62945313 34.0834375 19.9375 33.8125 C19.30972656 33.56371094 18.68195313 33.31492188 18.03515625 33.05859375 C10.40822563 30.64500811 2.2858679 31.09168755 -5.625 31.0625 C-6.78953705 31.05657837 -6.78953705 31.05657837 -7.9776001 31.05053711 C-26.43888578 31.00779297 -44.79100061 32.46602317 -63.18164062 33.9519043 C-64.31880524 34.04376511 -65.45596985 34.13562592 -66.62759399 34.23027039 C-68.76670392 34.40500235 -70.90554249 34.58310225 -73.04403687 34.76521301 C-78.09272838 35.18518448 -83.0588088 35.47393869 -88.125 35.375 C-88.63287046 32.37614586 -89.13146625 29.37621874 -89.625 26.375 C-89.76808594 25.53582031 -89.91117188 24.69664063 -90.05859375 23.83203125 C-90.90980242 18.60317799 -91.27214583 13.67224973 -91.125 8.375 C-60.76371837 3.73053704 -30.75256204 0.13800196 0 0 Z M-30.07717896 107.58352661 C-32.06678619 107.62382103 -34.05673372 107.64604547 -36.04663086 107.66772461 C-44.78437489 107.90267635 -52.37645688 109.02523806 -59.0625 115 C-64.14325601 123.31396438 -64.59972675 131.82339382 -64.5 141.375 C-64.51160156 142.48617187 -64.52320313 143.59734375 -64.53515625 144.7421875 C-64.50246966 154.00338723 -63.54268361 162.91808516 -56.93359375 169.90625 C-48.21722416 176.98477045 -36.81980612 177.20040631 -26.125 176.375 C-8.02446236 174.21567902 10.02941106 167.17790684 24.95214844 156.66992188 C26.875 155.375 26.875 155.375 29.50878906 154.03320312 C33.25611799 151.78241978 36.27803015 149.76132156 37.38955688 145.31811523 C38.13466215 139.18019936 37.783945 133.03392773 37.5 126.875 C37.44978947 124.98449248 37.40417078 123.09385709 37.36328125 121.203125 C37.25356922 116.59057328 37.08133467 111.98419912 36.875 107.375 C3.39715317 107.19174678 3.39715317 107.19174678 -30.07717896 107.58352661 Z " fill="#FFFFFF" transform="translate(903.125,83.625)"/>
<path d="M0 0 C0.83524704 -0.00570007 1.67049408 -0.01140015 2.53105164 -0.01727295 C4.29681145 -0.02668119 6.0625885 -0.03324023 7.82836914 -0.03710938 C10.46599175 -0.04670858 13.10279766 -0.07772675 15.74023438 -0.109375 C38.47205711 -0.25185624 62.61775371 3.12141186 79.94921875 19.203125 C92.28225199 32.18804714 95.73993174 48.15790425 95.57421875 65.640625 C95.58582031 66.86072266 95.59742188 68.08082031 95.609375 69.33789062 C95.57563677 79.91482677 94.27433268 90.23633159 89.26171875 99.703125 C88.77832031 100.6415625 88.29492188 101.58 87.796875 102.546875 C81.86389709 112.41099475 73.06400856 117.11022863 62.19921875 120.203125 C56.9151916 121.32023407 51.8025924 121.33801332 46.43017578 121.31665039 C44.98045631 121.31686943 44.98045631 121.31686943 43.50144958 121.3170929 C40.31995365 121.31639851 37.13851691 121.30862833 33.95703125 121.30078125 C31.74600252 121.29891539 29.53497338 121.29749228 27.32394409 121.29649353 C21.51414848 121.29268162 15.70437799 121.28286265 9.89459229 121.27178955 C3.96228373 121.26154692 -1.9700289 121.2569898 -7.90234375 121.25195312 C-19.53516727 121.24123919 -31.16797217 121.22417869 -42.80078125 121.203125 C-42.34331499 124.23386256 -41.88028353 127.26357614 -41.4140625 130.29296875 C-41.28616333 131.14419312 -41.15826416 131.99541748 -41.02648926 132.87243652 C-38.95923872 146.21793724 -34.78883242 159.01779581 -23.9140625 167.7421875 C1.48444656 185.30049136 45.47257846 177.31715933 74.45458984 173.81298828 C78.72921658 173.30192514 82.89495357 173.12476387 87.19921875 173.203125 C88.87675202 178.51061472 89.74626902 183.61220424 90.32421875 189.140625 C90.41058594 189.91986328 90.49695312 190.69910156 90.5859375 191.50195312 C90.79573198 193.4017587 90.99823869 195.30236674 91.19921875 197.203125 C53.90445598 210.58536341 -1.04547544 216.7860078 -38.15405273 199.42041016 C-56.11700355 190.54519327 -67.58229488 177.53800041 -74.05078125 158.453125 C-76.73834729 150.16500684 -78.58199162 141.83110339 -79.80078125 133.203125 C-79.94217529 132.20478638 -79.94217529 132.20478638 -80.08642578 131.1862793 C-81.17812535 122.17634022 -81.04462634 113.07742889 -81.05078125 104.015625 C-81.05145599 103.12495331 -81.05213074 102.23428162 -81.05282593 101.31661987 C-81.01893197 73.13237122 -78.9988273 41.78071745 -58.1953125 20.41015625 C-42.22058666 5.68630617 -21.44502032 0.11649276 0 0 Z M-17.80078125 34.203125 C-18.6103125 34.491875 -19.41984375 34.780625 -20.25390625 35.078125 C-29.44783695 39.00835492 -34.73240685 46.69515527 -38.55078125 55.62890625 C-40.67440686 61.70114822 -41.83530091 67.85545203 -42.80078125 74.203125 C-42.93226562 75.06035156 -43.06375 75.91757813 -43.19921875 76.80078125 C-43.70815995 80.70037122 -43.83651879 84.53319789 -43.8203125 88.46484375 C-43.81749268 89.35518311 -43.81467285 90.24552246 -43.81176758 91.1628418 C-43.80814209 91.83613525 -43.8045166 92.50942871 -43.80078125 93.203125 C-32.33485793 93.29594518 -20.86902451 93.36695112 -9.40280151 93.41037369 C-4.07813208 93.43121798 1.24627964 93.4594781 6.57080078 93.50488281 C11.71256024 93.54845294 16.85407233 93.57228585 21.9960022 93.58263397 C23.95435477 93.59000529 25.91269434 93.60439977 27.87094116 93.62604523 C30.62128595 93.65522768 33.3706182 93.65907482 36.12109375 93.65722656 C36.92454727 93.67160767 37.72800079 93.68598877 38.55580139 93.70080566 C44.19660571 93.65998634 48.48022355 92.34548892 53.19921875 89.203125 C59.66599387 82.21201676 60.76786871 71.32128627 60.48046875 62.1484375 C59.58905592 52.81336427 56.67997251 43.91775189 49.3828125 37.640625 C31.73039245 25.65837624 1.34027038 27.2074107 -17.80078125 34.203125 Z " fill="#FFFFFF" transform="translate(1535.80078125,83.796875)"/>
<path d="M0 0 C11.88 0 23.76 0 36 0 C36.0093457 4.54692627 36.01869141 9.09385254 36.02832031 13.77856445 C36.06211175 28.81415296 36.11747292 43.84960516 36.18390274 58.8850832 C36.22364768 67.99964491 36.25606321 77.11412084 36.27099609 86.22875977 C36.28403623 94.17661083 36.31106094 102.12427282 36.35461307 110.07201737 C36.37717497 114.27713024 36.39291386 118.48201034 36.39188385 122.6871891 C36.3911341 126.65260692 36.40920996 130.61751125 36.44116783 134.5827961 C36.44962336 136.03106592 36.45144658 137.47939364 36.44580269 138.92767715 C36.41521224 147.99110218 36.57719044 157.62115898 42.61377335 164.96260548 C48.27833899 170.49639509 56.0068522 172.34858719 63.7331543 172.46875 C64.88618042 172.45328125 64.88618042 172.45328125 66.0625 172.4375 C66.88468018 172.42847656 67.70686035 172.41945313 68.55395508 172.41015625 C83.28901906 172.00096732 95.24893 167.01864261 108 160 C109.15097168 159.37520752 109.15097168 159.37520752 110.32519531 158.73779297 C114.17715959 156.64576438 118.01932521 154.53652426 121.84375 152.39453125 C122.45412109 152.05268799 123.06449219 151.71084473 123.69335938 151.35864258 C124.45455078 150.91029053 125.21574219 150.46193848 126 150 C126.64023354 149.75628662 127.28046707 149.51257324 127.94010162 149.26147461 C130.4759212 148.10223867 132.10141364 147.05867173 134 145 C135.23086531 140.41886863 135.0708164 135.83096627 135 131.12182617 C135.00760938 129.69251308 135.01873104 128.26321501 135.03309631 126.83395386 C135.0620981 122.9598442 135.04200881 119.08736396 135.0130806 115.21331191 C134.99118902 111.1626463 135.01447358 107.11224607 135.03295898 103.06159973 C135.06109014 95.39399483 135.04861324 87.72701552 135.02153492 80.05942851 C134.9926813 71.32903925 135.00911495 62.59891883 135.02934647 53.86852682 C135.06994386 35.91208102 135.04771156 17.95644328 135 0 C146.55 0 158.1 0 170 0 C170 65.67 170 131.34 170 199 C160.76 199 151.52 199 142 199 C140.64768721 189.87188864 139.68996256 181.24945026 140 172 C135.80715343 174.32876574 131.80205912 176.76472803 127.86523438 179.50097656 C119.62455849 185.21052394 111.1115363 189.84098043 102 194 C101.39220703 194.28359375 100.78441406 194.5671875 100.15820312 194.859375 C78.83964866 204.6737801 53.05723189 207.96638455 30.35546875 201.26171875 C18.73266385 196.89132762 10.94323875 189.90165614 5.28515625 178.90234375 C-0.03488001 166.88779378 -0.14653636 154.5742846 -0.11352539 141.6796875 C-0.11324298 140.13172914 -0.1134023 138.58377066 -0.1139679 137.03581238 C-0.11425377 132.85252338 -0.10839096 128.66926329 -0.10139394 124.48598099 C-0.09512547 120.10711058 -0.09455384 115.72823944 -0.09336853 111.34936523 C-0.0902655 103.06583054 -0.08206599 94.78230911 -0.07201904 86.49878025 C-0.06082594 77.06467689 -0.0553394 67.63057289 -0.05032361 58.19646454 C-0.0398825 38.79763399 -0.02154983 19.39882161 0 0 Z " fill="#FFFFFF" transform="translate(581,88)"/>
<path d="M0 0 C1.1768335 -0.00687836 2.35366699 -0.01375671 3.56616211 -0.02084351 C7.38398319 -0.03804852 11.20167335 -0.0443095 15.01953125 -0.046875 C16.31815094 -0.04854675 17.61677063 -0.05021851 18.95474243 -0.05194092 C35.02268922 -0.05318085 51.00754252 0.17124544 67.01953125 1.578125 C67.73837494 1.64124878 68.45721863 1.70437256 69.19784546 1.76940918 C96.91091798 4.28201173 96.91091798 4.28201173 98.83203125 6.203125 C98.7661566 8.71833893 98.63916047 11.19575651 98.45703125 13.703125 C98.38258789 14.78992554 98.38258789 14.78992554 98.30664062 15.89868164 C97.25496753 30.78018872 97.25496753 30.78018872 95.83203125 32.203125 C93.89872749 32.22250148 91.96467696 32.16927374 90.03295898 32.08862305 C88.78305679 32.04115433 87.5331546 31.99368561 86.24537659 31.94477844 C85.23067889 31.90365653 85.23067889 31.90365653 84.19548225 31.86170387 C66.65664098 31.16291825 49.12871933 31.01518612 31.57788086 31.01782227 C27.61350859 31.01792605 23.64930684 31.00398599 19.68497562 30.98705006 C16.57158104 30.97591451 13.45822866 30.97390311 10.34481621 30.97443199 C8.88134582 30.97326539 7.41787386 30.9689195 5.9544239 30.96109962 C-9.06852126 30.66763771 -9.06852126 30.66763771 -22.16796875 37.203125 C-27.6202034 44.72344866 -26.78456416 54.30779689 -26.16796875 63.203125 C-25.14098021 68.90412438 -22.84185529 71.83761509 -18.16796875 75.203125 C-10.06528672 79.49186025 -1.32500775 81.59707934 7.57546234 83.51151848 C9.81805271 83.99427746 12.05704295 84.49148461 14.29571533 84.99208069 C19.85489206 86.23226402 25.41909524 87.44921005 30.98352051 88.66558838 C35.70093637 89.69763588 40.4159982 90.73945242 45.12851715 91.79364204 C47.30190774 92.27588397 49.47793935 92.74436342 51.65447998 93.21214294 C58.78750875 94.78173102 65.66134762 96.68670693 72.51269531 99.23266602 C73.16581066 99.47476523 73.81892601 99.71686445 74.49183273 99.96630001 C80.28314883 102.20850325 85.09623107 105.22154485 89.83203125 109.203125 C90.486875 109.74710937 91.14171875 110.29109375 91.81640625 110.8515625 C101.06616807 119.27121749 104.27870771 131.3404496 104.95996094 143.48339844 C105.49970788 160.34172842 104.58529594 176.60118292 93.76953125 190.390625 C80.76410096 204.2054061 59.77973983 206.60638911 41.75057983 207.32614136 C33.25756074 207.54144143 24.76471475 207.53816448 16.26953125 207.515625 C14.9626535 207.51479919 13.65577576 207.51397339 12.30929565 207.51312256 C-11.59491732 207.47830962 -34.56445171 206.13704451 -58.16796875 202.203125 C-57.50796875 193.623125 -56.84796875 185.043125 -56.16796875 176.203125 C-52.10536743 176.21883545 -52.10536743 176.21883545 -47.96069336 176.23486328 C-38.96021836 176.26816851 -29.95974047 176.29016034 -20.95921993 176.30674934 C-15.50818021 176.31713711 -10.05720423 176.33120367 -4.60620117 176.35400391 C0.66524815 176.37591233 5.9366366 176.38773116 11.20812798 176.39287949 C13.20811355 176.39654321 15.20809621 176.40369637 17.2080555 176.41458511 C41.66979191 177.43838987 41.66979191 177.43838987 63.546875 168.75 C68.82041495 162.69689327 70.19525789 156.35223289 70.04296875 148.41796875 C69.49503514 142.6646658 68.21145557 137.79476845 64.39453125 133.390625 C52.70539017 125.35792653 37.61215081 123.3255196 24.08203125 120.265625 C19.69054321 119.26025482 15.30027294 118.2496212 10.91015625 117.23828125 C9.83016861 116.98991013 8.75018097 116.741539 7.63746643 116.48564148 C-0.0266731 114.7163663 -7.67615215 112.89349773 -15.3125 111.0078125 C-16.28922668 110.76970352 -17.26595337 110.53159454 -18.27227783 110.28627014 C-29.82433113 107.40418846 -40.32940537 103.45732055 -49.16796875 95.203125 C-49.73 94.68234375 -50.29203125 94.1615625 -50.87109375 93.625 C-61.49464838 82.57221084 -62.53109883 66.66417358 -62.46850586 52.18603516 C-62.20481742 38.89282696 -60.19526576 25.1283544 -51.05859375 14.82421875 C-37.28499339 1.9292791 -18.09443555 0.07140985 0 0 Z " fill="#FFFFFF" transform="translate(427.16796875,83.796875)"/>
<path d="M0 0 C54.78 0 109.56 0 166 0 C166 30 166 30 159.9375 38.375 C156.31640625 41.453125 156.31640625 41.453125 154.55908203 42.78320312 C152.54735171 44.35327264 150.9826144 46.15004374 149.375 48.125 C146.48255051 51.47793896 143.49960907 54.74313802 140.5 58 C137.46107665 61.3002483 134.43843844 64.6094941 131.5 68 C128.0932265 71.9308925 124.56997215 75.75196573 121.046875 79.578125 C118.49444857 82.35494057 115.97016712 85.14980717 113.5 88 C110.0932265 91.9308925 106.56997215 95.75196573 103.046875 99.578125 C100.49444857 102.35494057 97.97016712 105.14980717 95.5 108 C92.0932265 111.9308925 88.56997215 115.75196573 85.046875 119.578125 C82.49444857 122.35494057 79.97016712 125.14980717 77.5 128 C74.0932265 131.9308925 70.56997215 135.75196573 67.046875 139.578125 C63.93758544 142.96075869 60.89386993 146.39013085 57.88671875 149.86328125 C54.94745222 153.19201581 51.928655 156.44788872 48.90625 159.70117188 C46.11855116 162.71783157 43.57527866 165.78090168 41 169 C103.37 169.495 103.37 169.495 167 170 C167 179.57 167 189.14 167 199 C111.56 199 56.12 199 -1 199 C-1 169 -1 169 6.0625 159.625 C10.03515625 156.2265625 10.03515625 156.2265625 12.03759766 154.65332031 C15.42660394 151.79808885 18.14965703 148.37719987 21 145 C22.81391242 142.9814519 24.6582472 140.99342656 26.5 139 C29.53968996 135.70047223 32.56158059 132.39048393 35.5 129 C38.9067735 125.0691075 42.43002785 121.24803427 45.953125 117.421875 C48.50555143 114.64505943 51.02983288 111.85019283 53.5 109 C56.9067735 105.0691075 60.43002785 101.24803427 63.953125 97.421875 C66.50555143 94.64505943 69.02983288 91.85019283 71.5 89 C74.9067735 85.0691075 78.43002785 81.24803427 81.953125 77.421875 C84.50555143 74.64505943 87.02983288 71.85019283 89.5 69 C92.9067735 65.0691075 96.43002785 61.24803427 99.953125 57.421875 C103.05869281 54.04329024 106.09968335 50.61890266 109.1015625 47.1484375 C112.12780606 43.72367627 115.24074517 40.37767909 118.35742188 37.03515625 C120.98217364 34.23709431 120.98217364 34.23709431 123 31 C82.41 30.67 41.82 30.34 0 30 C0 20.1 0 10.2 0 0 Z " fill="#FFFFFF" transform="translate(1247,88)"/>
<path d="M0 0 C11.55 0 23.1 0 35 0 C35.00586624 2.93664047 35.01173248 5.87328094 35.01777649 8.89891052 C35.07298224 35.84446467 35.14295711 62.78995531 35.22898628 89.73542782 C35.2402541 93.26884932 35.25139261 96.80227121 35.26245117 100.33569336 C35.26465486 101.03911765 35.26685854 101.74254194 35.269129 102.46728212 C35.3044766 113.84874365 35.32935504 125.2302051 35.35034702 136.61170112 C35.37212932 148.29498664 35.40520276 159.97820109 35.44870156 171.66142613 C35.47263861 178.22169329 35.49136431 184.78188186 35.49761391 191.3421917 C35.50366245 197.51864972 35.52365448 203.69490663 35.55427551 209.87129021 C35.56305934 212.13636376 35.56677761 214.4014636 35.56500816 216.6665535 C35.56335267 219.76401291 35.5800789 222.86086123 35.60127258 225.95823669 C35.59642501 226.85028492 35.59157743 227.74233314 35.58658296 228.66141313 C35.66553794 235.67478596 37.05720931 241.76201552 40.6875 247.8125 C46.50263227 253.31330079 53.26237502 255.04821875 61.078125 255.31640625 C62.23828125 255.35830078 63.3984375 255.40019531 64.59375 255.44335938 C65.8003125 255.48267578 67.006875 255.52199219 68.25 255.5625 C69.47203125 255.60568359 70.6940625 255.64886719 71.953125 255.69335938 C74.9686392 255.79937355 77.98423448 255.90143936 81 256 C83.37371307 265.16572398 85.44271604 274.48160519 85 284 C66.34197153 289.68842331 42.12726074 292.61959084 24 284 C13.54206658 278.06278708 6.04181005 270.00277173 2.18482494 258.58734608 C-0.93038472 247.13359939 -0.39787319 235.5361406 -0.34057617 223.75854492 C-0.33972889 221.31330882 -0.34020701 218.86807196 -0.34190369 216.4228363 C-0.34258402 211.18082031 -0.33414588 205.93890556 -0.31719017 200.69692039 C-0.29269193 193.11812784 -0.2849839 185.53938929 -0.2812262 177.96056143 C-0.27467858 165.66109536 -0.25476357 153.36168936 -0.22631836 141.06225586 C-0.19873385 129.12248025 -0.17752184 117.18272101 -0.16479492 105.24291992 C-0.16400675 104.50556042 -0.16321858 103.76820093 -0.16240653 103.0084972 C-0.15849109 99.30896588 -0.15470005 95.60943444 -0.15097082 91.90990293 C-0.11992759 61.27322432 -0.06630599 30.63662379 0 0 Z " fill="#FFFFFF" transform="translate(1037,2)"/>
<path d="M0 0 C11.55 0 23.1 0 35 0 C35 65.67 35 131.34 35 199 C23.45 199 11.9 199 0 199 C0 133.33 0 67.66 0 0 Z " fill="#FFFFFF" transform="translate(1159,88)"/>
<path d="M0 0 C11.55 0 23.1 0 35 0 C35 65.67 35 131.34 35 199 C23.45 199 11.9 199 0 199 C0 133.33 0 67.66 0 0 Z " fill="#FFFFFF" transform="translate(277,88)"/>
<path d="M0 0 C0.87720703 -0.020625 1.75441406 -0.04125 2.65820312 -0.0625 C8.26434987 -0.09604463 12.29743881 0.41184684 17.1875 3.25 C20.69668414 8.22990198 19.5205465 15.10725364 19.50317383 20.94897461 C19.50001522 23.17676785 19.5234834 25.40323028 19.54882812 27.63085938 C19.55110154 29.05468583 19.55180442 30.47851584 19.55078125 31.90234375 C19.55376221 33.19132568 19.55674316 34.48030762 19.55981445 35.80834961 C19.16314957 39.47509382 18.42522379 41.35110022 16.1875 44.25 C11.12325537 46.80139265 5.79793309 46.58300234 0.25 46.5625 C-1.05227539 46.58666992 -1.05227539 46.58666992 -2.38085938 46.61132812 C-7.95099443 46.61553836 -11.91778352 45.9749595 -16.8125 43.25 C-19.22777597 39.62708604 -19.15202821 36.88940911 -19.18359375 32.6953125 C-19.19262222 31.95675018 -19.2016507 31.21818787 -19.21095276 30.45724487 C-19.2254503 28.89552866 -19.23434078 27.33375178 -19.23803711 25.77197266 C-19.24992563 23.3899018 -19.29910117 21.0104297 -19.34960938 18.62890625 C-19.35907519 17.10938761 -19.36630947 15.58985309 -19.37109375 14.0703125 C-19.39062607 13.36182159 -19.41015839 12.65333069 -19.43028259 11.92337036 C-19.39546183 8.08108485 -18.91811059 6.38525467 -16.52758789 3.32373047 C-11.42000756 -0.57733844 -6.20819433 0.03601563 0 0 Z " fill="#FFFFFF" transform="translate(294.8125,3.75)"/>
<path d="M0 0 C1.30227539 -0.02416992 1.30227539 -0.02416992 2.63085938 -0.04882812 C8.20099443 -0.05303836 12.16778352 0.5875405 17.0625 3.3125 C19.47777597 6.93541396 19.40202821 9.67309089 19.43359375 13.8671875 C19.44713646 14.97503098 19.44713646 14.97503098 19.46095276 16.10525513 C19.4754503 17.66697134 19.48434078 19.22874822 19.48803711 20.79052734 C19.49992563 23.1725982 19.54910117 25.5520703 19.59960938 27.93359375 C19.60907519 29.45311239 19.61630947 30.97264691 19.62109375 32.4921875 C19.64062607 33.20067841 19.66015839 33.90916931 19.68028259 34.63912964 C19.64546183 38.48141515 19.16811059 40.17724533 16.77758789 43.23876953 C11.67000756 47.13983844 6.45819433 46.52648437 0.25 46.5625 C-0.62720703 46.583125 -1.50441406 46.60375 -2.40820312 46.625 C-8.01434987 46.65854463 -12.04743881 46.15065316 -16.9375 43.3125 C-20.44668414 38.33259802 -19.2705465 31.45524636 -19.25317383 25.61352539 C-19.25001522 23.38573215 -19.2734834 21.15926972 -19.29882812 18.93164062 C-19.30110154 17.50781417 -19.30180442 16.08398416 -19.30078125 14.66015625 C-19.30376221 13.37117432 -19.30674316 12.08219238 -19.30981445 10.75415039 C-18.91314957 7.08740618 -18.17522379 5.21139978 -15.9375 2.3125 C-10.87325537 -0.23889265 -5.54793309 -0.02050234 0 0 Z " fill="#FFFFFF" transform="translate(1175.9375,3.6875)"/>
</svg>
