<?xml version="1.0" encoding="UTF-8"?>
<svg version="1.1" xmlns="http://www.w3.org/2000/svg" width="2000" height="737">
<path d="M0 0 C3.32195662 1.45071707 5.52738358 3.26837328 8.09431458 5.81343079 C9.30374725 7.00573303 9.30374725 7.00573303 10.53761292 8.22212219 C11.41312302 9.09539658 12.28863312 9.96867096 13.19067383 10.8684082 C14.11945343 11.787258 15.04823303 12.70610779 16.00515747 13.65280151 C18.54911888 16.17057403 21.08642726 18.69494661 23.6217711 21.22139382 C25.20552925 22.79928481 26.79045181 24.37599699 28.37573814 25.95235252 C33.33470954 30.88399815 38.28967591 35.81961579 43.23886663 40.76107723 C48.95420911 46.46744457 54.68241032 52.16047611 60.42212087 57.84233028 C64.85820579 62.23524052 69.28275072 66.63955617 73.69863909 71.05276746 C76.33675524 73.68878452 78.97953674 76.31968705 81.63437843 78.93886757 C84.59175121 81.85727896 87.52486341 84.7989449 90.45629883 87.7434082 C91.34193008 88.61060989 92.22756134 89.47781158 93.14002991 90.37129211 C93.93221924 91.17461975 94.72440857 91.97794739 95.54060364 92.80561829 C96.58503742 93.84565238 96.58503742 93.84565238 97.65057087 94.90669727 C99 97 99 97 98.8053236 99.63666058 C97.85820754 102.41611064 96.64000002 103.93399584 94.6875 106.125 C88.28008623 113.84380545 83.15609696 122.41438901 78 131 C77.61811523 131.63534668 77.23623047 132.27069336 76.84277344 132.92529297 C47.10289444 183.29843703 41.10766731 246.77507168 55.46484375 302.86328125 C63.59924769 333.05533364 77.25627028 361.25903241 96.75 385.75 C99 389 99 389 98.87592411 390.94527817 C97.75060713 393.58501984 96.2698022 395.09891933 94.23521423 397.12554932 C93.42608078 397.93880676 92.61694733 398.75206421 91.78329468 399.58996582 C90.88921906 400.47325562 89.99514343 401.35654541 89.07397461 402.26660156 C88.12738199 403.21234788 87.18144965 404.15875546 86.23612976 405.10577393 C83.66856538 407.67419954 81.09185202 410.23326627 78.51341319 412.79076862 C75.82012097 415.4653155 73.13531395 418.14835231 70.44960022 420.83050537 C65.36280557 425.90797327 60.26841148 430.977745 55.17125183 436.04480529 C49.36857517 441.81395759 43.57440803 447.59162401 37.78094471 453.37002611 C25.86341497 465.25619255 13.93522914 477.13160559 2 489 C-3.90073077 486.2417923 -7.09143337 481.0623392 -11 476 C-11.55155762 475.28956543 -12.10311523 474.57913086 -12.67138672 473.84716797 C-30.05541095 451.36105332 -44.76021231 427.64442474 -57 402 C-57.35416992 401.26120605 -57.70833984 400.52241211 -58.07324219 399.76123047 C-95.35446447 321.3324632 -101.75551936 229.49773543 -79 146 C-78.74524902 145.05962891 -78.49049805 144.11925781 -78.22802734 143.15039062 C-68.11637612 106.50754169 -52.08184855 70.06504546 -30 39 C-29.21458431 37.8777857 -28.42944342 36.75537904 -27.64453125 35.6328125 C-18.97427091 23.3036989 -9.7392146 11.50056193 0 0 Z " fill="#37E9E4" transform="translate(93,124)"/>
<path d="M0 0 C1.11375 0.17160645 2.2275 0.34321289 3.375 0.52001953 C65.05141516 10.06314848 124.15823316 34.9998899 173 74 C173.99773437 74.78503906 174.99546875 75.57007812 176.0234375 76.37890625 C180.78039129 80.14304236 185.42268291 84.01972427 190 88 C189.42879344 91.75944832 187.89688575 93.47428851 185.23521423 96.12554932 C184.42608078 96.93880676 183.61694733 97.75206421 182.78329468 98.58996582 C181.44218124 99.91490051 181.44218124 99.91490051 180.07397461 101.26660156 C179.12738199 102.21234788 178.18144965 103.15875546 177.23612976 104.10577393 C174.66856538 106.67419954 172.09185202 109.23326627 169.51341319 111.79076862 C166.82012097 114.4653155 164.13531395 117.14835231 161.44960022 119.83050537 C156.36280557 124.90797327 151.26841148 129.977745 146.17125183 135.04480529 C140.36857517 140.81395759 134.57440803 146.59162401 128.78094471 152.37002611 C116.86341497 164.25619255 104.93522914 176.13160559 93 188 C90.24507533 186.65383427 87.84897691 185.24511313 85.41015625 183.3828125 C55.92267624 161.24828703 23.1687887 146.97695345 -13 140 C-13.82387207 139.83483887 -14.64774414 139.66967773 -15.49658203 139.49951172 C-71.90795827 128.60480414 -133.84379406 143.03707281 -181.23779297 174.78271484 C-185.06928632 177.42940726 -188.77674906 180.22770683 -192.44921875 183.08984375 C-195 185 -195 185 -200 188 C-232.34 155.66 -264.68 123.32 -298 90 C-296.3396474 85.01894221 -291.8719363 82.61405774 -287.828125 79.44091797 C-285.86357445 77.89247014 -283.91641852 76.32352496 -281.96875 74.75390625 C-249.01491587 48.41391481 -210.96652943 28.35762351 -171 15 C-169.93700684 14.64212402 -168.87401367 14.28424805 -167.77880859 13.91552734 C-148.2321729 7.44962058 -128.27287859 3.38003201 -108 0 C-106.85144531 -0.1949707 -105.70289063 -0.38994141 -104.51953125 -0.59082031 C-70.99521685 -5.98233828 -33.46397936 -5.56827579 0 0 Z " fill="#37E9E4" transform="translate(424,3)"/>
<path d="M0 0 C3.2654942 2.17040498 6.5175197 4.334651 9.671875 6.6640625 C19.70535534 13.9774152 29.9719999 20.30247622 41 26 C42.09272217 26.57379395 42.09272217 26.57379395 43.20751953 27.15917969 C74.66471729 43.51887509 109.96569725 51.45967749 145.3125 51.375 C146.13538513 51.37478851 146.95827026 51.37457703 147.80609131 51.37435913 C169.7518488 51.31848989 190.91318317 48.13730921 212 42 C212.72880371 41.79181641 213.45760742 41.58363281 214.20849609 41.36914062 C240.12165653 33.81767042 264.96869658 20.90685008 286 4 C286.92941406 3.2575 287.85882813 2.515 288.81640625 1.75 C289.89728516 0.88375 289.89728516 0.88375 291 0 C294.32494799 1.45122165 296.52775159 3.27069268 299.09431458 5.82015991 C299.90060303 6.61647324 300.70689148 7.41278656 301.53761292 8.23323059 C302.85087807 9.54549873 302.85087807 9.54549873 304.19067383 10.88427734 C305.11945343 11.80473343 306.04823303 12.72518951 307.00515747 13.67353821 C309.54902007 16.19548197 312.08630342 18.72394465 314.6217711 21.25432539 C316.20541902 22.83432898 317.79035699 24.41302672 319.37573814 25.99129105 C324.9042424 31.49531733 330.42701741 37.00502589 335.94506836 42.51953125 C341.09340402 47.66422502 346.25474338 52.79561812 351.42212087 57.92117918 C355.85647616 62.32089933 360.28121821 66.7301339 364.69863909 71.14685595 C367.3380121 73.78543432 369.98124887 76.41984583 372.63437843 79.04459763 C375.58898006 81.96829707 378.52339891 84.9114648 381.45629883 87.85693359 C382.34193008 88.72773056 383.22756134 89.59852753 384.14002991 90.49571228 C384.93221924 91.29766525 385.72440857 92.09961823 386.54060364 92.9258728 C387.23689282 93.62015066 387.93318201 94.31442852 388.65057087 95.0297451 C390 97 390 97 389.87417126 99.09472084 C388.41119658 102.28331247 385.71143057 104.24410878 383.0625 106.4375 C382.4449585 106.95683105 381.82741699 107.47616211 381.19116211 108.01123047 C373.43910427 114.43049856 365.25538523 120.25184732 357 126 C356.36481445 126.44585449 355.72962891 126.89170898 355.07519531 127.35107422 C344.909378 134.45512871 334.24871975 140.62723365 323.41552734 146.65283203 C321.34823334 147.80578618 319.29193106 148.97536859 317.23828125 150.15234375 C265.71422235 178.88126599 204.96320748 191.51158333 146.4375 191.3125 C145.29358795 191.31034485 144.1496759 191.3081897 142.97109985 191.30596924 C125.81037189 191.25415626 108.96122739 190.84674602 92 188 C90.77200684 187.79600586 89.54401367 187.59201172 88.27880859 187.38183594 C21.48139364 175.95935328 -39.23843024 148.60489164 -91.37744141 105.33935547 C-93.56461142 103.53393647 -95.77927525 101.76388994 -98 100 C-96.54190191 96.64516562 -94.69713436 94.44988336 -92.11495972 91.87445068 C-91.3044516 91.06119324 -90.49394348 90.24793579 -89.65887451 89.41003418 C-88.76839417 88.52674438 -87.87791382 87.64345459 -86.96044922 86.73339844 C-86.0139238 85.78743735 -85.06783893 84.84103527 -84.12216187 83.89422607 C-81.55657326 81.32806382 -78.98486641 78.76811335 -76.41201925 76.20923138 C-73.72318166 73.53289903 -71.04000938 70.8508992 -68.35623169 68.16949463 C-63.27456387 63.09404217 -58.18781945 58.02370937 -53.09923279 52.95519471 C-47.30575182 47.18407095 -41.51795103 41.40726493 -35.7306211 35.62997389 C-23.82672435 23.74698043 -11.91571235 11.87114554 0 0 Z " fill="#37E9E4" transform="translate(224,546)"/>
<path d="M0 0 C4.01643235 3.11002296 7.12414628 6.40747318 10.1875 10.4375 C10.66525879 11.05802246 11.14301758 11.67854492 11.63525391 12.31787109 C12.62038844 13.59786255 13.60346481 14.8794407 14.58447266 16.16259766 C15.86480272 17.82450936 17.17117697 19.46627668 18.48046875 21.10546875 C67.96085465 83.50080039 93.19588092 164.33650855 93.25 243.4375 C93.25067474 244.33262299 93.25134949 245.22774597 93.25204468 246.1499939 C93.14477792 336.52374033 59.55655823 420.81615464 1 489 C-4.72214296 484.24294527 -9.99138468 479.144737 -15.23999023 473.87353516 C-16.13834091 472.97533051 -17.03669159 472.07712585 -17.96226501 471.15170288 C-20.40616461 468.70808822 -22.84698562 466.26141992 -25.28723407 463.81415987 C-27.84520673 461.24990276 -30.40604351 458.68850909 -32.96656799 456.12680054 C-37.8061678 451.28410235 -42.64321453 446.4388625 -47.47933203 441.59268701 C-52.98888809 436.07192327 -58.50131047 430.55402528 -64.01396644 425.03635716 C-75.34581961 413.69407344 -86.67409718 402.34822555 -98 391 C-96.67048748 388.28757885 -95.278362 385.85913817 -93.49609375 383.41796875 C-93.00753906 382.74185547 -92.51898437 382.06574219 -92.015625 381.36914062 C-91.49484375 380.64919922 -90.9740625 379.92925781 -90.4375 379.1875 C-55.02345439 329.362727 -40.1803323 268.78866256 -49.45214844 208.20849609 C-51.08152565 198.6660383 -53.39707643 189.31877998 -56 180 C-56.24169922 179.12102051 -56.48339844 178.24204102 -56.73242188 177.33642578 C-64.78089169 148.84506075 -79.73037238 123.08825476 -98 100 C-96.54190191 96.64516562 -94.69713436 94.44988336 -92.11495972 91.87445068 C-91.3044516 91.06119324 -90.49394348 90.24793579 -89.65887451 89.41003418 C-88.76839417 88.52674438 -87.87791382 87.64345459 -86.96044922 86.73339844 C-86.0139238 85.78743735 -85.06783893 84.84103527 -84.12216187 83.89422607 C-81.55657326 81.32806382 -78.98486641 78.76811335 -76.41201925 76.20923138 C-73.72318166 73.53289903 -71.04000938 70.8508992 -68.35623169 68.16949463 C-63.27456387 63.09404217 -58.18781945 58.02370937 -53.09923279 52.95519471 C-47.30575182 47.18407095 -41.51795103 41.40726493 -35.7306211 35.62997389 C-23.82672435 23.74698043 -11.91571235 11.87114554 0 0 Z " fill="#37E9E4" transform="translate(646,124)"/>
<path d="M0 0 C1.25695679 0.00539291 1.25695679 0.00539291 2.53930664 0.01089478 C3.41727402 0.01074875 4.29524139 0.01060272 5.19981384 0.01045227 C8.11630685 0.01115172 11.03273683 0.01894561 13.94921875 0.02676392 C15.96561142 0.02862798 17.98200454 0.03005194 19.99839783 0.03105164 C25.31671388 0.03487772 30.6350028 0.04470878 35.95330811 0.05575562 C41.37576938 0.06596779 46.79823502 0.07054884 52.22070312 0.07559204 C62.86850153 0.08633097 73.51627976 0.10340847 84.1640625 0.12442017 C83.68729386 5.43876475 83.20249324 10.66813691 82.0078125 15.87832642 C81.68103516 17.31208618 81.68103516 17.31208618 81.34765625 18.77481079 C81.12207031 19.73580688 80.89648438 20.69680298 80.6640625 21.68692017 C80.43847656 22.68272095 80.21289062 23.67852173 79.98046875 24.70449829 C78.29991127 31.9885714 78.29991127 31.9885714 77.1640625 33.12442017 C75.31036639 33.21179662 73.45338709 33.2314017 71.59765625 33.22207642 C70.47294922 33.21885376 69.34824219 33.2156311 68.18945312 33.21231079 C67.00544922 33.20393188 65.82144531 33.19555298 64.6015625 33.18692017 C63.41369141 33.18240845 62.22582031 33.17789673 61.00195312 33.17324829 C58.05594024 33.16141691 55.11002569 33.14493303 52.1640625 33.12442017 C52.22507456 33.81033863 52.28608662 34.4962571 52.34894753 35.20296097 C56.30834386 79.73436672 60.16346893 124.27391074 63.94080758 168.82110834 C64.6219883 176.85390001 65.30451343 184.88657733 65.98709559 192.91925001 C67.3808064 209.32085567 68.77300665 225.72258912 70.1640625 242.12442017 C70.96099552 240.85634204 71.7570167 239.58769083 72.55265808 238.31880188 C73.21773266 237.25917504 73.21773266 237.25917504 73.8962431 236.17814159 C75.54726584 233.50367489 77.07818635 230.77434061 78.58984375 228.01895142 C79.52473633 226.31932251 79.52473633 226.31932251 80.47851562 224.58535767 C81.14454975 223.36922196 81.81056485 222.15307584 82.4765625 220.93692017 C83.18269901 219.65163 83.8890843 218.36647648 84.59570312 217.08145142 C86.06036705 214.41742632 87.52396984 211.7528225 88.98681641 209.08779907 C92.04094719 203.52568755 95.10813427 197.97079016 98.17514038 192.41577148 C99.83872491 189.40232454 101.50134175 186.38834377 103.1640625 183.37442017 C103.8307246 182.16608431 104.49739126 180.95775098 105.1640625 179.74942017 C105.4940625 179.15129517 105.8240625 178.55317017 106.1640625 177.93692017 C141.16406247 114.49942022 141.16406247 114.49942022 142.16404724 112.68695068 C142.830768 111.47851741 143.49748553 110.27008235 144.16419983 109.06164551 C145.83001248 106.04232673 147.49588104 103.02303883 149.16186523 100.0038147 C152.17203801 94.54841963 155.18179823 89.09279901 158.18948364 83.6360321 C167.48040095 66.77987018 176.80656384 49.94371732 186.1640625 33.12442017 C178.2440625 33.12442017 170.3240625 33.12442017 162.1640625 33.12442017 C162.7621875 30.09254517 163.3603125 27.06067017 163.9765625 23.93692017 C164.15807861 23.01113159 164.33959473 22.08534302 164.52661133 21.13150024 C165.9271305 14.08374984 167.54575942 7.13706683 169.1640625 0.12442017 C199.1940625 0.12442017 229.2240625 0.12442017 260.1640625 0.12442017 C259.03791621 11.38588309 259.03791621 11.38588309 258.0078125 15.87832642 C257.78996094 16.83416626 257.57210938 17.7900061 257.34765625 18.77481079 C257.12207031 19.73580688 256.89648438 20.69680298 256.6640625 21.68692017 C256.43847656 22.68272095 256.21289062 23.67852173 255.98046875 24.70449829 C254.29991127 31.9885714 254.29991127 31.9885714 253.1640625 33.12442017 C251.55276301 32.95144298 249.94651422 32.73109461 248.34375 32.49160767 C241.69254618 31.83231089 235.43702085 31.51299715 229.1640625 34.12442017 C222.70773195 40.29389164 219.44207005 49.264106 215.89404297 57.33047485 C213.22548862 63.31319233 209.90957585 68.9413218 206.6640625 74.62442017 C205.4111443 76.87279646 204.16114897 79.122804 202.9140625 81.37442017 C120.4140625 229.87442016 120.4140625 229.87442016 118.53564453 233.25552368 C117.29698238 235.48514787 116.05837479 237.71480236 114.81982422 239.94448853 C111.87836186 245.23966391 108.93632085 250.53451554 105.99237061 255.82830811 C104.59455342 258.34193232 103.19704453 260.85572788 101.79956055 263.36953735 C101.13028172 264.5732367 100.46085016 265.77685114 99.79125977 266.9803772 C98.86566723 268.64406506 97.94063238 270.30806314 97.015625 271.97207642 C96.48791504 272.92090698 95.96020508 273.86973755 95.41650391 274.84732056 C94.63996275 276.25917229 93.88466523 277.6832147 93.1640625 279.12442017 C85.74946308 279.147549 78.33487139 279.16533801 70.92024326 279.17623234 C67.47765902 279.18145999 64.03509938 279.18855548 60.5925293 279.19985962 C56.63851207 279.21276251 52.68450494 279.21764934 48.73046875 279.22207642 C46.86800255 279.22981834 46.86800255 279.22981834 44.96791077 279.23771667 C43.25624977 279.23782997 43.25624977 279.23782997 41.51000977 279.23794556 C40.4996315 279.24016617 39.48925323 279.24238678 38.44825745 279.24467468 C36.1640625 279.12442017 36.1640625 279.12442017 35.1640625 278.12442017 C34.78065877 275.07240677 34.45784621 272.03280215 34.17063904 268.97117615 C34.07586291 267.9985861 33.98108678 267.02599606 33.88343865 266.02393359 C33.56441547 262.73857331 33.25184453 259.45263033 32.93920898 256.16665649 C32.71284027 253.82155783 32.48608574 251.47649637 32.25897217 249.13146973 C31.64127483 242.74122741 31.0292246 236.3504554 30.41829944 229.95956254 C29.84429257 223.95826132 29.26575265 217.957396 28.68774701 211.95647892 C27.54208322 200.06026115 26.40084427 188.16362296 25.26196289 176.26675415 C24.15680079 164.72213899 23.04816466 153.1778642 21.93579102 141.63394165 C20.72531667 129.07189672 19.51661974 116.50968336 18.31115013 103.94715708 C18.18253691 102.60685296 18.05392358 101.26654884 17.92531013 99.92624474 C17.83039081 98.9370201 17.83039081 98.9370201 17.73355393 97.92781112 C17.28764919 93.28180289 16.84052111 88.63591387 16.39300346 83.99006081 C15.79035327 77.73186504 15.19056856 71.47340106 14.59300232 65.21471786 C14.37307482 62.9160227 14.15217545 60.61742028 13.93023872 58.31891823 C13.62767997 55.18371939 13.32863936 52.04820435 13.03050232 48.9125824 C12.94169263 48.00080492 12.85288294 47.08902745 12.76138204 46.14962035 C12.68188064 45.30575922 12.60237924 44.46189808 12.52046871 43.5924654 C12.45114224 42.86926052 12.38181578 42.14605565 12.31038851 41.40093547 C12.13339807 38.64734819 12.1640625 35.88368973 12.1640625 33.12442017 C3.5840625 33.12442017 -4.9959375 33.12442017 -13.8359375 33.12442017 C-12.86076603 28.58465323 -11.88338963 24.04548488 -10.90014648 19.50747681 C-10.56612345 17.96251867 -10.23343729 16.41727089 -9.90209961 14.87173462 C-9.42650203 12.65441195 -8.94615712 10.4381644 -8.46484375 8.22207642 C-8.31688858 7.52727676 -8.16893341 6.83247711 -8.01649475 6.11662292 C-6.68750916 0.03870079 -6.23662731 0.01130071 0 0 Z " fill="#FEFFFF" transform="translate(818.8359375,227.87557983398438)"/>
<path d="M0 0 C0.66 -2.97 1.32 -5.94 2 -9 C14.54 -9 27.08 -9 40 -9 C36.97323778 6.60758505 33.50640489 22.07693595 29.87890625 37.5546875 C29.29096182 40.07407922 28.70331635 42.59354072 28.11595154 45.11306763 C26.73600806 51.02952527 25.35338738 56.9453508 23.96930307 62.86084092 C21.9516282 71.48482301 19.93838494 80.10983977 17.92543697 88.73492622 C16.47840554 94.93506852 15.03067819 101.13504447 13.58045959 107.33444214 C10.33619427 121.21178522 7.14440988 135.09966279 4 149 C13.57 149.33 23.14 149.66 33 150 C30.69 160.56 28.38 171.12 26 182 C3.56 182 -18.88 182 -42 182 C-41.34 178.37 -40.68 174.74 -40 171 C-40.8971875 171.51949219 -41.794375 172.03898438 -42.71875 172.57421875 C-62.61300468 183.79958899 -85.41257308 189.01653463 -108.0625 183.4375 C-119.75221652 179.73575644 -129.86982891 174.20726571 -139 166 C-139.61101562 165.48179687 -140.22203125 164.96359375 -140.8515625 164.4296875 C-153.85851743 152.61058234 -161.78481883 133.78800818 -163.30371094 116.55395508 C-163.43661227 113.00933676 -163.46784231 109.48444432 -163.4375 105.9375 C-163.42920166 104.67180176 -163.42090332 103.40610352 -163.41235352 102.10205078 C-162.83392166 69.65634636 -149.80181107 40.07963831 -126.734375 17.31689453 C-109.67427227 1.11302801 -86.42474181 -10.18610746 -63 -13 C-62.10152344 -13.10957031 -61.20304687 -13.21914063 -60.27734375 -13.33203125 C-38.56592604 -15.62226519 -18.35905647 -12.23937098 0 0 Z M-96 37 C-96.80953125 37.71671875 -97.6190625 38.4334375 -98.453125 39.171875 C-109.46811497 49.51109872 -116.21018577 61.81478094 -121 76 C-121.3403125 76.96421875 -121.680625 77.9284375 -122.03125 78.921875 C-126.79809288 95.2527256 -126.18187084 115.49373681 -118.64453125 130.7421875 C-112.59808374 141.66793984 -104.35763809 148.11115752 -92.35546875 151.81640625 C-73.85297532 155.9831095 -55.70123364 149.42014566 -39.53515625 140.625 C-38.28025391 139.820625 -38.28025391 139.820625 -37 139 C-35.98808594 138.42378906 -34.97617188 137.84757812 -33.93359375 137.25390625 C-28.88677485 132.86039463 -28.35887648 125.18432999 -27 118.9375 C-26.63896891 117.35692492 -26.27569288 115.77686128 -25.91040039 114.19726562 C-25.07940565 110.59073669 -24.26162948 106.98147329 -23.44970703 103.37060547 C-21.94413129 96.71111919 -20.37133391 90.06785075 -18.79413986 83.42505074 C-17.4987058 77.96594975 -16.21027137 72.50518866 -14.92071533 67.04469681 C-14.43767276 65.00073102 -13.95360339 62.95701016 -13.46948242 60.91329956 C-12.55469284 57.04799593 -11.64995191 53.18037496 -10.74609375 49.3125 C-10.4684166 48.14316422 -10.19073944 46.97382843 -9.90464783 45.76905823 C-9.65308426 44.68640182 -9.40152069 43.60374542 -9.14233398 42.48828125 C-8.80999001 41.07349487 -8.80999001 41.07349487 -8.47093201 39.63012695 C-7.99913884 36.99519049 -7.79760314 34.66906712 -8 32 C-12.89038076 26.3181808 -19.98162249 23.1856919 -27 21 C-27.71027344 20.77441406 -28.42054688 20.54882812 -29.15234375 20.31640625 C-52.36231002 14.40173998 -78.32464457 21.13088527 -96 37 Z " fill="#FEFFFF" transform="translate(1959,325)"/>
<path d="M0 0 C17.93434966 14.32785253 30.10812886 33.60078474 33.5 56.5625 C35.62462959 90.67965545 27.67657844 120.20075383 5.5 146.5625 C5.06042969 147.12453125 4.62085938 147.6865625 4.16796875 148.265625 C-11.30583614 167.93133021 -38.10706229 180.51338279 -62.5 183.5625 C-88.55897807 186.16839781 -113.07471137 181.78878 -134.125 165.4375 C-135.60235065 164.16762837 -137.06270149 162.87753304 -138.5 161.5625 C-139.13035156 161.00046875 -139.76070312 160.4384375 -140.41015625 159.859375 C-156.56778571 144.66054992 -164.54992566 122.48601782 -165.703125 100.73046875 C-166.09076485 67.81338522 -154.79523536 38.15732294 -131.875 14.4375 C-97.77700409 -19.44345301 -39.92971637 -28.94777917 0 0 Z M-106.75 39.9375 C-123.46977152 59.03461404 -127.05998319 81.90997794 -125.5 106.5625 C-123.97367458 119.11142592 -117.29543492 130.91632841 -108.15625 139.5234375 C-94.70614097 149.84837414 -79.65736136 152.28754142 -63.22265625 150.1328125 C-50.80922484 147.433516 -39.87494573 140.98979778 -30.5 132.5625 C-29.88898438 132.04429687 -29.27796875 131.52609375 -28.6484375 130.9921875 C-14.06848739 117.74373969 -6.3557595 96.3628732 -5.18359375 77.1796875 C-4.54585616 60.36298198 -8.32610954 45.02830229 -19.1875 31.8125 C-25.84305743 24.72509343 -34.06420458 19.87694039 -43.5 17.5625 C-44.24378906 17.37945312 -44.98757813 17.19640625 -45.75390625 17.0078125 C-69.66553788 13.13025061 -90.48728121 22.75516319 -106.75 39.9375 Z " fill="#FEFFFF" transform="translate(1536.5,327.4375)"/>
<path d="M0 0 C1.6025371 0.00138269 1.6025371 0.00138269 3.23744869 0.00279331 C4.45887569 0.00141865 5.6803027 0.00004398 6.93874264 -0.00137234 C8.3046639 0.00216727 9.67058492 0.00580208 11.0365057 0.00952244 C12.46520644 0.00980431 13.89390733 0.00964659 15.32260799 0.00907993 C19.21293315 0.00879194 23.10322774 0.01468896 26.99354577 0.02165389 C31.05481548 0.02788713 35.11608582 0.0284912 39.17735958 0.0296793 C46.87322276 0.0327927 54.56907181 0.04100622 62.26492876 0.05102879 C71.02415457 0.06218964 79.78338105 0.0677003 88.5426122 0.07272422 C106.56589397 0.08318882 124.58916257 0.10078844 142.61243343 0.12304783 C142.54450588 0.73190327 142.47657833 1.34075871 142.40659237 1.96806431 C142.31709316 2.77161854 142.22759396 3.57517277 142.13538265 4.40307713 C142.0468301 5.19755756 141.95827755 5.992038 141.86704159 6.81059361 C141.65308176 8.75386333 141.44810852 10.69811956 141.24524593 12.64257908 C139.6292655 23.12159065 135.0347921 28.13849632 127.61243343 35.12304783 C126.19207915 36.53601725 124.77494771 37.95224091 123.36243343 39.37304783 C122.40530453 40.31470798 122.40530453 40.31470798 121.42883968 41.27539158 C119.63367113 43.10144475 117.9631821 44.989193 116.29993343 46.93554783 C113.38992911 50.32500366 110.29083785 53.48756583 107.11243343 56.62304783 C103.37212032 60.31298636 99.83003997 64.09808477 96.42102718 68.09570408 C93.43593227 71.44184719 90.20360576 74.53898735 87.01477718 77.68945408 C84.9752897 79.75547148 83.05735544 81.85310332 81.17493343 84.06054783 C78.31070989 87.41229879 75.24909251 90.528612 72.11243343 93.62304783 C68.99664221 96.6969531 65.95366105 99.79006928 63.11243343 103.12304783 C59.83009953 106.97347798 56.25988495 110.50450362 52.6615057 114.05444431 C49.41242736 117.27671231 46.3879948 120.61645428 43.42102718 124.09570408 C40.43593227 127.44184719 37.20360576 130.53898735 34.01477718 133.68945408 C31.9752897 135.75547148 30.05735544 137.85310332 28.17493343 140.06054783 C24.41890759 144.46046382 20.29666642 148.4698583 16.16321468 152.50976658 C13.24721699 155.41147612 13.24721699 155.41147612 9.61243343 160.12304783 C41.29243343 160.61804783 41.29243343 160.61804783 73.61243343 161.12304783 C74.27243343 157.16304783 74.93243343 153.20304783 75.61243343 149.12304783 C76.45416456 145.35821406 77.31638878 141.61712184 78.23743343 137.87304783 C79.02118343 134.65554783 79.80493343 131.43804783 80.61243343 128.12304783 C92.82243343 128.12304783 105.03243343 128.12304783 117.61243343 128.12304783 C117.01824201 132.87657921 116.47744985 137.16648449 115.41321468 141.75708103 C115.05779598 143.3032687 115.05779598 143.3032687 114.69519711 144.88069248 C114.31391659 146.5107951 114.31391659 146.5107951 113.92493343 148.17382908 C113.66236752 149.30958881 113.3998016 150.44534855 113.12927914 151.61552525 C112.57639846 154.00364323 112.02159411 156.39131659 111.4649725 158.77856541 C110.61140952 162.43993993 109.76376358 166.10264566 108.91712093 169.76562595 C108.37840162 172.08927325 107.83935073 174.41284371 107.29993343 176.73632908 C106.91865292 178.38161343 106.91865292 178.38161343 106.52966976 180.06013584 C106.17425106 181.5826823 106.17425106 181.5826823 105.81165218 183.13598728 C105.49973934 184.47546169 105.49973934 184.47546169 105.18152523 185.84199619 C104.61243343 188.12304783 104.61243343 188.12304783 103.61243343 191.12304783 C53.78243343 191.12304783 3.95243343 191.12304783 -47.38756657 191.12304783 C-47.05756657 187.82304783 -46.72756657 184.52304783 -46.38756657 181.12304783 C-46.2232111 179.44082127 -46.2232111 179.44082127 -46.05553532 177.72461033 C-44.50410843 168.11333159 -39.76101114 163.6258367 -32.80455875 157.42627048 C-30.96910011 155.73817981 -29.36283046 153.90841071 -27.76256657 151.99804783 C-24.32610295 147.95810768 -20.5648457 144.28614288 -16.79381657 140.56054783 C-14.73307312 138.47304148 -12.79241031 136.3513556 -10.88756657 134.12304783 C-7.4030455 130.04681564 -3.60674675 126.3275391 0.20618343 122.56054783 C2.26692688 120.47304148 4.20758969 118.3513556 6.11243343 116.12304783 C9.5969545 112.04681564 13.39325325 108.3275391 17.20618343 104.56054783 C19.26692688 102.47304148 21.20758969 100.3513556 23.11243343 98.12304783 C25.80854485 94.96910618 28.66060318 92.03931386 31.61243343 89.12304783 C34.54361535 86.22712825 37.37646518 83.32062212 40.04993343 80.18554783 C43.35589462 76.31686985 46.94388021 72.76240478 50.56311703 69.19189548 C53.81227516 65.96954374 56.83679678 62.62972966 59.80383968 59.15039158 C62.78527119 55.80835497 66.01336989 52.71487193 69.19837093 49.56836033 C71.30176943 47.43773337 73.28773589 45.2682436 75.23743343 42.99804783 C78.83747504 38.86466673 82.73653748 34.99894378 86.61243343 31.12304783 C57.40743343 30.62804783 57.40743343 30.62804783 27.61243343 30.12304783 C26.29243343 36.39304783 24.97243343 42.66304783 23.61243343 49.12304783 C22.95243343 51.76304783 22.29243343 54.40304783 21.61243343 57.12304783 C9.07243343 57.12304783 -3.46756657 57.12304783 -16.38756657 57.12304783 C-14.7140708 49.84485413 -13.0399255 42.56687203 -11.35900974 35.2903986 C-10.57650674 31.90212268 -9.79530593 28.51355838 -9.01720524 25.12426853 C-8.12513592 21.23881827 -7.2272229 17.35473033 -6.32897282 13.47070408 C-6.04977497 12.25093372 -5.77057713 11.03116337 -5.48291874 9.77443027 C-5.22272449 8.6533437 -4.96253025 7.53225712 -4.69445133 6.37719822 C-4.46572834 5.38458485 -4.23700535 4.39197147 -4.00135136 3.36927891 C-3.12469625 0.16103722 -3.12469625 0.16103722 0 0 Z " fill="#FEFFFF" transform="translate(1220.3875665664673,315.8769521713257)"/>
<path d="M0 0 C19.14 0 38.28 0 58 0 C58 76.23 58 152.46 58 231 C38.86 231 19.72 231 0 231 C0 154.77 0 78.54 0 0 Z " fill="#37E8E3" transform="translate(445,253)"/>
<path d="M0 0 C1.2487793 -0.00064453 2.49755859 -0.00128906 3.78417969 -0.00195312 C13.23406621 0.05178104 22.42373055 0.69529689 31.75 2.1875 C31.0917383 8.35602031 29.92210051 14.26994791 28.5 20.3046875 C28.17273926 21.71223801 28.17273926 21.71223801 27.83886719 23.14822388 C27.3802106 25.11685064 26.91956789 27.08501563 26.45703125 29.05273438 C25.74752035 32.07305565 25.04517652 35.09497965 24.34375 38.1171875 C23.89625347 40.0339523 23.44835126 41.95062245 23 43.8671875 C22.78956055 44.772341 22.57912109 45.67749451 22.36230469 46.6100769 C22.16540039 47.44499664 21.96849609 48.27991638 21.765625 49.14013672 C21.59321289 49.87545624 21.42080078 50.61077576 21.24316406 51.36837769 C20.75 53.1875 20.75 53.1875 19.75 55.1875 C7.21 55.1875 -5.33 55.1875 -18.25 55.1875 C-17.125 46.1875 -17.125 46.1875 -16.27734375 43.125 C-16.10009766 42.47402344 -15.92285156 41.82304687 -15.74023438 41.15234375 C-15.55783203 40.50394531 -15.37542969 39.85554688 -15.1875 39.1875 C-15.00123047 38.50816406 -14.81496094 37.82882812 -14.62304688 37.12890625 C-14.17029084 35.48040992 -13.71086372 33.83374809 -13.25 32.1875 C-32.86465685 36.01214442 -46.42834808 42.2438947 -58.51524639 58.93467712 C-61.91857691 64.05152681 -63.53291211 68.84497828 -64.8371582 74.81640625 C-65.05246689 75.74416367 -65.26777557 76.67192108 -65.48960876 77.62779236 C-66.19089406 80.66546464 -66.87094955 83.70746147 -67.55078125 86.75 C-68.03557215 88.86878936 -68.52169149 90.98727517 -69.00907898 93.10546875 C-70.28321161 98.65909254 -71.53934245 104.21663597 -72.79168701 109.77520752 C-74.07482423 115.45549513 -75.37505656 121.13186446 -76.67382812 126.80859375 C-79.21590815 137.93115756 -81.73738073 149.05824387 -84.25 160.1875 C-74.02 160.1875 -63.79 160.1875 -53.25 160.1875 C-54.03375 164.168125 -54.8175 168.14875 -55.625 172.25 C-55.86782715 173.49144775 -56.1106543 174.73289551 -56.36083984 176.01196289 C-56.65788818 177.5084436 -56.65788818 177.5084436 -56.9609375 179.03515625 C-57.15993652 180.04586182 -57.35893555 181.05656738 -57.56396484 182.09790039 C-58.31838772 185.4954881 -59.29387748 188.84107118 -60.25 192.1875 C-83.35 192.1875 -106.45 192.1875 -130.25 192.1875 C-125.65537204 169.2143602 -125.65537204 169.2143602 -123.71972656 161.01733398 C-123.4979071 160.06601593 -123.27608765 159.11469788 -123.04754639 158.134552 C-122.33152039 155.06686805 -121.61109624 152.0002364 -120.890625 148.93359375 C-120.37711876 146.73681075 -119.863922 144.5399554 -119.35101318 142.34303284 C-118.00880684 136.59718447 -116.66297586 130.85219179 -115.31616211 125.10742188 C-113.18044485 115.99468752 -111.05033157 106.88064022 -108.91984558 97.76668167 C-108.40209127 95.55200629 -107.88419873 93.33736322 -107.36616516 91.12275314 C-102.93050851 72.15846987 -98.56880805 53.17878032 -94.25 34.1875 C-105.8 34.1875 -117.35 34.1875 -129.25 34.1875 C-128.00822489 23.01152402 -124.97725292 12.09651169 -122.25 1.1875 C-98.16 1.1875 -74.07 1.1875 -49.25 1.1875 C-50.57 7.4575 -51.89 13.7275 -53.25 20.1875 C-53.25 21.1775 -53.25 22.1675 -53.25 23.1875 C-52.60675781 22.5584375 -51.96351562 21.929375 -51.30078125 21.28125 C-36.09935015 6.88217689 -20.88357929 -0.01098269 0 0 Z " fill="#FEFFFF" transform="translate(1740.25,314.8125)"/>
<path d="M0 0 C23.76 0 47.52 0 72 0 C71.40157929 4.78736564 70.85368016 9.0912451 69.7744751 13.71133423 C69.52790161 14.7759639 69.28132813 15.84059357 69.02728271 16.93748474 C68.75821106 18.08040482 68.4891394 19.22332489 68.21191406 20.40087891 C67.92719238 21.62491928 67.6424707 22.84895966 67.34912109 24.11009216 C66.57150935 27.45275352 65.78889494 30.79422553 65.00539112 34.13550997 C64.17990971 37.65989622 63.35921867 41.18539765 62.5380249 44.71078491 C60.97831425 51.4034748 59.41454642 58.09520953 57.84921241 64.78658617 C55.56998522 74.53048496 53.29695761 84.27583007 51.02376938 94.02113914 C50.68412325 95.47717738 50.34447407 96.93321491 50.00482178 98.38925171 C49.83848165 99.10235296 49.67214153 99.8154542 49.50076079 100.55016458 C48.52878016 104.71645445 47.55569982 108.88248544 46.58159709 113.04827964 C43.00268123 128.35412108 39.46582549 143.66811399 36 159 C45.9 159 55.8 159 66 159 C65.401875 162.0525 64.80375 165.105 64.1875 168.25 C63.91522583 169.65233887 63.91522583 169.65233887 63.63745117 171.08300781 C62.30593269 177.80499504 60.66807922 184.32768311 59 191 C36.23 191 13.46 191 -10 191 C-5.4051712 168.02585602 -5.4051712 168.02585602 -3.57739258 160.26049805 C-3.36693298 159.35461945 -3.15647339 158.44874084 -2.93963623 157.51541138 C-2.26083871 154.59682832 -1.57772741 151.67927495 -0.89453125 148.76171875 C-0.40585993 146.66419459 0.08252109 144.56660279 0.57063293 142.46894836 C1.84836973 136.98110447 3.12972476 131.49411216 4.4119873 126.00732422 C5.68615024 120.55287196 6.95731516 115.09772144 8.22851562 109.64257812 C8.73104304 107.48617424 9.23357598 105.32977165 9.7361145 103.17337036 C10.10688299 101.58237204 10.10688299 101.58237204 10.48514175 99.95923233 C11.22591701 96.78124607 11.96714078 93.6033647 12.70846558 90.42550659 C17.1711517 71.29107417 21.5928998 52.14730239 26 33 C15.11 33 4.22 33 -7 33 C-5.75822489 21.82402402 -2.72725292 10.90901169 0 0 Z " fill="#FEFFFF" transform="translate(1079,316)"/>
<path d="M0 0 C19.14 0 38.28 0 58 0 C58 49.83 58 99.66 58 151 C38.86 151 19.72 151 0 151 C0 101.17 0 51.34 0 0 Z " fill="#37E8E3" transform="translate(341,333)"/>
<path d="M0 0 C19.47 0 38.94 0 59 0 C59 26.73 59 53.46 59 81 C39.53 81 20.06 81 0 81 C0 54.27 0 27.54 0 0 Z " fill="#37E9E3" transform="translate(237,403)"/>
<path d="M0 0 C5.87171505 5.94245861 8.83050562 11.44823788 9 20 C8.4375002 27.03749744 5.66519702 32.73251277 1 38 C-6.16318805 43.68721924 -12.95777816 44.95818916 -22 44 C-28.82333861 41.87781798 -34.27046691 38.14203634 -38 32 C-41.43871412 24.74339797 -42.06057418 18.05699062 -39.8125 10.375 C-37.17698715 3.30648166 -32.85736675 -0.65454985 -26.25 -4.0234375 C-17.71131937 -7.72946208 -7.0312505 -6.05014578 0 0 Z " fill="#FEFFFF" transform="translate(1155,231)"/>
</svg>
