<?xml version="1.0" encoding="UTF-8"?>
<svg version="1.1" xmlns="http://www.w3.org/2000/svg" width="94" height="94">
<path d="M0 0 C0 15.51 0 31.02 0 47 C-6.93 46.505 -6.93 46.505 -14 46 C-14.99 46 -15.98 46 -17 46 C-27.33333333 46 -37.66666667 46 -48 46 C-50.11588667 46.02332445 -52.23177187 46.04678116 -54.34765625 46.0703125 C-56.91926786 46.08895702 -59.49088263 46.10716808 -62.0625 46.125 C-63.36767578 46.14175781 -64.67285156 46.15851563 -66.01757812 46.17578125 C-67.26087891 46.18222656 -68.50417969 46.18867187 -69.78515625 46.1953125 C-70.92863525 46.20578613 -72.07211426 46.21625977 -73.25024414 46.22705078 C-76 46 -76 46 -78 44 C-78.24291992 41.52563477 -78.24291992 41.52563477 -78.23046875 38.44140625 C-78.22853516 37.33345703 -78.22660156 36.22550781 -78.22460938 35.08398438 C-78.21236328 33.92189453 -78.20011719 32.75980469 -78.1875 31.5625 C-78.1865332 29.82516602 -78.1865332 29.82516602 -78.18554688 28.05273438 C-78.14040824 19.42122473 -78.14040824 19.42122473 -77 16 C-74.54617866 14.77308933 -72.80015897 14.79824069 -70.0625 14.75 C-68.74958984 14.71132813 -68.74958984 14.71132813 -67.41015625 14.671875 C-65 15 -65 15 -63.2265625 16.22265625 C-60.97316511 19.48792953 -61.28119321 23.11953375 -61 27 C-56.38 27 -51.76 27 -47 27 C-47.02320312 25.94039062 -47.04640625 24.88078125 -47.0703125 23.7890625 C-47.08906944 22.4010487 -47.10726972 21.0130273 -47.125 19.625 C-47.14175781 18.92632812 -47.15851562 18.22765625 -47.17578125 17.5078125 C-47.19344267 15.67102514 -47.10303261 13.83398037 -47 12 C-45 10 -45 10 -42.06640625 9.76953125 C-40.91011719 9.78371094 -39.75382812 9.79789063 -38.5625 9.8125 C-36.83193359 9.82216797 -36.83193359 9.82216797 -35.06640625 9.83203125 C-32 10 -32 10 -29 11 C-29 12.98 -29 14.96 -29 17 C-25.37 16.67 -21.74 16.34 -18 16 C-17.95101562 14.92878906 -17.90203125 13.85757813 -17.8515625 12.75390625 C-17.77654706 11.35674361 -17.7009987 9.9596095 -17.625 8.5625 C-17.5940625 7.85544922 -17.563125 7.14839844 -17.53125 6.41992188 C-17.42719371 4.60760812 -17.22080108 2.80182012 -17 1 C-11.92281793 -1.53859104 -5.67646212 0 0 0 Z M-72 16 C-68 17 -68 17 -68 17 Z M-29 18 C-29 18.33 -29 18.66 -29 19 C-25.04 19 -21.08 19 -17 19 C-17 18.67 -17 18.34 -17 18 C-20.96 18 -24.92 18 -29 18 Z " fill="#1AB6F2" transform="translate(86,36)"/>
<path d="M0 0 C0.33 0 0.66 0 1 0 C1.65082223 10.35504648 2.12068634 20.62097439 2 31 C5.96 31.33 9.92 31.66 14 32 C14 32.33 14 32.66 14 33 C9 33 4 33 -1 33 C-3.11588667 33.02332445 -5.23177187 33.04678116 -7.34765625 33.0703125 C-9.91926786 33.08895702 -12.49088263 33.10716808 -15.0625 33.125 C-16.36767578 33.14175781 -17.67285156 33.15851563 -19.01757812 33.17578125 C-20.26087891 33.18222656 -21.50417969 33.18867187 -22.78515625 33.1953125 C-23.92863525 33.20578613 -25.07211426 33.21625977 -26.25024414 33.22705078 C-29 33 -29 33 -31 31 C-31.24291992 28.52563477 -31.24291992 28.52563477 -31.23046875 25.44140625 C-31.22853516 24.33345703 -31.22660156 23.22550781 -31.22460938 22.08398438 C-31.21236328 20.92189453 -31.20011719 19.75980469 -31.1875 18.5625 C-31.1865332 16.82516602 -31.1865332 16.82516602 -31.18554688 15.05273438 C-31.14040824 6.42122473 -31.14040824 6.42122473 -30 3 C-27.54617866 1.77308933 -25.80015897 1.79824069 -23.0625 1.75 C-21.74958984 1.71132813 -21.74958984 1.71132813 -20.41015625 1.671875 C-18 2 -18 2 -16.2265625 3.22265625 C-13.97316511 6.48792953 -14.28119321 10.11953375 -14 14 C-9.38 14 -4.76 14 0 14 C0 9.38 0 4.76 0 0 Z M-25 3 C-21 4 -21 4 -21 4 Z " fill="#145ACC" transform="translate(39,49)"/>
<path d="M0 0 C1.05960938 0.00676758 1.05960938 0.00676758 2.140625 0.01367188 C3.88545275 0.02546125 5.630237 0.04339676 7.375 0.0625 C7.52131355 14.75888301 7.08121322 29.38335388 6.375 44.0625 C2.085 44.0625 -2.205 44.0625 -6.625 44.0625 C-6.68558594 42.65355469 -6.74617188 41.24460938 -6.80859375 39.79296875 C-6.89300491 37.94530224 -6.97765263 36.09764653 -7.0625 34.25 C-7.10181641 33.32123047 -7.14113281 32.39246094 -7.18164062 31.43554688 C-7.22353516 30.54287109 -7.26542969 29.65019531 -7.30859375 28.73046875 C-7.34525146 27.90828857 -7.38190918 27.0861084 -7.41967773 26.23901367 C-7.55927772 23.88344822 -7.55927772 23.88344822 -8.625 21.0625 C-13.245 21.0625 -17.865 21.0625 -22.625 21.0625 C-22.625 17.7625 -22.625 14.4625 -22.625 11.0625 C-22.295 11.0625 -21.965 11.0625 -21.625 11.0625 C-21.625 13.0425 -21.625 15.0225 -21.625 17.0625 C-17.995 16.7325 -14.365 16.4025 -10.625 16.0625 C-10.57601562 14.99128906 -10.52703125 13.92007813 -10.4765625 12.81640625 C-10.40154706 11.41924361 -10.3259987 10.0221095 -10.25 8.625 C-10.2190625 7.91794922 -10.188125 7.21089844 -10.15625 6.48242188 C-10.05219371 4.67010812 -9.84580108 2.86432012 -9.625 1.0625 C-6.55966836 -0.47016582 -3.35745728 -0.04026471 0 0 Z M-21.625 18.0625 C-21.625 18.3925 -21.625 18.7225 -21.625 19.0625 C-17.665 19.0625 -13.705 19.0625 -9.625 19.0625 C-9.625 18.7325 -9.625 18.4025 -9.625 18.0625 C-13.585 18.0625 -17.545 18.0625 -21.625 18.0625 Z " fill="#6CEFF8" transform="translate(78.625,35.9375)"/>
<path d="M0 0 C4.34482759 1.34482759 4.34482759 1.34482759 6 3 C6.3125 5.375 6.3125 5.375 6 8 C4.3125 9.8125 4.3125 9.8125 2 11 C1.21625 10.979375 0.4325 10.95875 -0.375 10.9375 C-4.21417816 11.028909 -6.0792415 12.59848745 -9 15 C-9.33 15.886875 -9.66 16.77375 -10 17.6875 C-10.495 18.8321875 -10.495 18.8321875 -11 20 C-13.9375 21 -13.9375 21 -17 21 C-18.875 19.6875 -18.875 19.6875 -20 18 C-20 17.34 -20 16.68 -20 16 C-28.07973899 15.72138831 -33.3770845 16.83078655 -39.51953125 22.3359375 C-41.58618972 24.65888343 -42.35535667 26.99166446 -43 30 C-49.05525768 31.38766322 -52.32010626 30.49118146 -58 28 C-58 27.34 -58 26.68 -58 26 C-59.093125 26.20625 -60.18625 26.4125 -61.3125 26.625 C-65 27 -65 27 -68 25 C-68.3125 22 -68.3125 22 -68 19 C-66 17 -66 17 -63.375 16.6875 C-59.34705256 17.0604581 -53.99338117 18.00661883 -51 21 C-50.34 20.67 -49.68 20.34 -49 20 C-48.2575 20.103125 -47.515 20.20625 -46.75 20.3125 C-42.99276622 19.88554162 -41.75564817 18.0750396 -39.33203125 15.3125 C-38 14 -38 14 -36 14 C-36.12375 12.8553125 -36.12375 12.8553125 -36.25 11.6875 C-36 9 -36 9 -34.5625 7 C-30.8786756 5.56240999 -28.54704932 6.74500196 -24.92578125 8.04296875 C-23 9 -23 9 -22 11 C-20.20759337 10.88610125 -18.41605165 10.75852313 -16.625 10.625 C-15.62726562 10.55539063 -14.62953125 10.48578125 -13.6015625 10.4140625 C-10.84491121 10.23636036 -10.84491121 10.23636036 -9 8 C-6 7 -6 7 -4 7 C-3.896875 6.21625 -3.79375 5.4325 -3.6875 4.625 C-3 2 -3 2 0 0 Z " fill="#B946EB" transform="translate(78,7)"/>
<path d="M0 0 C4.95 0 9.9 0 15 0 C14.01 0.33 13.02 0.66 12 1 C12 8.26 12 15.52 12 23 C8.37 23 4.74 23 1 23 C0.67 15.41 0.34 7.82 0 0 Z " fill="#1AC8ED" transform="translate(55,57)"/>
<path d="M0 0 C0.33 0 0.66 0 1 0 C1 8.91 1 17.82 1 27 C-2.54817708 26.73958333 -6.09635417 26.47916667 -9.64453125 26.21875 C-12.7137865 26.01865885 -15.70445179 25.99251777 -18.77734375 26.0703125 C-20.34162109 26.09738281 -20.34162109 26.09738281 -21.9375 26.125 C-22.97777344 26.14820312 -24.01804687 26.17140625 -25.08984375 26.1953125 C-28 26 -28 26 -32 24 C-31.67 16.41 -31.34 8.82 -31 1 C-30.34 1.33 -29.68 1.66 -29 2 C-29 9.26 -29 16.52 -29 24 C-25.37 24 -21.74 24 -18 24 C-18 16.74 -18 9.48 -18 2 C-16.68 1.67 -15.36 1.34 -14 1 C-13.03911617 3.88265149 -12.88329059 5.67662271 -12.90234375 8.66796875 C-12.90556641 9.56064453 -12.90878906 10.45332031 -12.91210938 11.37304688 C-12.92048828 12.30181641 -12.92886719 13.23058594 -12.9375 14.1875 C-12.94201172 15.12787109 -12.94652344 16.06824219 -12.95117188 17.03710938 C-12.96295355 19.35810008 -12.98088886 21.67905807 -13 24 C-8.71 24 -4.42 24 0 24 C0 16.08 0 8.16 0 0 Z " fill="#2E8ABB" transform="translate(85,56)"/>
<path d="M0 0 C0.495 0.99 0.495 0.99 1 2 C2.89533342 2.46523063 2.89533342 2.46523063 5.0625 2.625 C6.361875 2.74875 7.66125 2.8725 9 3 C8.67 3.99 8.34 4.98 8 6 C6.80375 5.79375 5.6075 5.5875 4.375 5.375 C-1.44171043 4.69007979 -5.18392286 6.16304043 -9.75 9.75 C-12.81782776 12.49953217 -14.12324097 14.90845785 -15 19 C-21.05525768 20.38766322 -24.32010626 19.49118146 -30 17 C-30 16.34 -30 15.68 -30 15 C-31.093125 15.20625 -32.18625 15.4125 -33.3125 15.625 C-37 16 -37 16 -40 14 C-40.3125 11 -40.3125 11 -40 8 C-38 6 -38 6 -35.375 5.6875 C-31.12970944 6.08058246 -27.93490513 7.37176339 -24 9 C-23.67 11.31 -23.34 13.62 -23 16 C-20.69 15.34 -18.38 14.68 -16 14 C-16 13.01 -16 12.02 -16 11 C-14.35443434 9.96564444 -12.6829392 8.97236487 -11 8 C-10.175 7.113125 -9.35 6.22625 -8.5 5.3125 C-6 3 -6 3 -3.1875 2.6875 C-2.465625 2.790625 -1.74375 2.89375 -1 3 C-0.67 2.01 -0.34 1.02 0 0 Z " fill="#C966ED" transform="translate(50,18)"/>
<path d="M0 0 C1.98 0 3.96 0 6 0 C6.15938672 14.02603124 5.67067454 27.9907504 5 42 C3.35 42 1.7 42 0 42 C0 28.14 0 14.28 0 0 Z " fill="#4CDFED" transform="translate(80,38)"/>
<path d="M0 0 C1.65 0 3.3 0 5 0 C4.979375 0.99 4.95875 1.98 4.9375 3 C4.92637531 5.76448651 5.16590968 8.16136779 5.5625 10.9375 C6.15405825 15.13592037 5.67101256 18.82481073 5 23 C8.3 23.33 11.6 23.66 15 24 C15 22.02 15 20.04 15 18 C15.33 18 15.66 18 16 18 C16.12375 18.804375 16.2475 19.60875 16.375 20.4375 C16.58125 21.283125 16.7875 22.12875 17 23 C19.56893838 24.28446919 21.76576337 24.32977144 24.625 24.5625 C25.62789062 24.64628906 26.63078125 24.73007813 27.6640625 24.81640625 C28.43492188 24.87699219 29.20578125 24.93757813 30 25 C30 25.33 30 25.66 30 26 C26.04903022 26.04939662 22.0981797 26.08571755 18.14697266 26.10986328 C16.1408864 26.12488107 14.13488676 26.15028981 12.12890625 26.17578125 C10.87207031 26.18222656 9.61523438 26.18867187 8.3203125 26.1953125 C7.15773926 26.20578613 5.99516602 26.21625977 4.79736328 26.22705078 C2 26 2 26 0 24 C-0.22705078 21.56982422 -0.22705078 21.56982422 -0.1953125 18.5546875 C-0.18886719 17.47832031 -0.18242188 16.40195313 -0.17578125 15.29296875 C-0.15902344 14.16503906 -0.14226563 13.03710938 -0.125 11.875 C-0.11597656 10.73933594 -0.10695313 9.60367188 -0.09765625 8.43359375 C-0.07403098 5.62218701 -0.04109013 2.81119702 0 0 Z " fill="#2A478D" transform="translate(8,56)"/>
<path d="M0 0 C0.99 0 1.98 0 3 0 C5.38776806 29.13902594 5.38776806 29.13902594 5 42 C3.35 42 1.7 42 0 42 C-0.83871007 27.90168316 -1.06849543 14.08770128 0 0 Z " fill="#38E0EF" transform="translate(72,38)"/>
<path d="M0 0 C0.99 0 1.98 0 3 0 C2.88203546 4.53916919 2.75780887 9.07810642 2.62768555 13.61694336 C2.58428015 15.16214289 2.54260929 16.70739214 2.50268555 18.25268555 C2.44511801 20.46939096 2.38138576 22.6858448 2.31640625 24.90234375 C2.29133751 25.94454323 2.29133751 25.94454323 2.26576233 27.00779724 C2.11387171 31.88612829 2.11387171 31.88612829 1 33 C-0.4555937 33.09858603 -1.91607919 33.12972143 -3.375 33.125 C-4.16648437 33.12757812 -4.95796875 33.13015625 -5.7734375 33.1328125 C-8 33 -8 33 -11 32 C-11.33 27.05 -11.66 22.1 -12 17 C-11.34 17 -10.68 17 -10 17 C-9.66179834 18.5823006 -9.32964061 20.16589375 -9 21.75 C-8.814375 22.63171875 -8.62875 23.5134375 -8.4375 24.421875 C-8 27 -8 27 -8 31 C-6.02 31 -4.04 31 -2 31 C-2.00523682 30.44650879 -2.01047363 29.89301758 -2.01586914 29.32275391 C-2.18279688 9.01673439 -2.18279688 9.01673439 -1 1 C-0.67 0.67 -0.34 0.34 0 0 Z " fill="#0580DE" transform="translate(52,48)"/>
<path d="M0 0 C4.34482759 1.34482759 4.34482759 1.34482759 6 3 C6.3125 5.375 6.3125 5.375 6 8 C4.3125 9.8125 4.3125 9.8125 2 11 C1.21625 10.979375 0.4325 10.95875 -0.375 10.9375 C-4.21417816 11.028909 -6.0792415 12.59848745 -9 15 C-9.33 15.886875 -9.66 16.77375 -10 17.6875 C-10.33 18.450625 -10.66 19.21375 -11 20 C-14.125 20.8125 -14.125 20.8125 -17 21 C-17.66 20.01 -18.32 19.02 -19 18 C-18.030625 17.566875 -17.06125 17.13375 -16.0625 16.6875 C-12.72268235 15.2985139 -12.72268235 15.2985139 -12 12 C-11 11 -10 10 -9 9 C-9 8.34 -9 7.68 -9 7 C-7.35 7 -5.7 7 -4 7 C-3.896875 6.21625 -3.79375 5.4325 -3.6875 4.625 C-3 2 -3 2 0 0 Z " fill="#BE57EF" transform="translate(78,7)"/>
<path d="M0 0 C1.93166016 0.01740234 1.93166016 0.01740234 3.90234375 0.03515625 C5.19269531 0.04417969 6.48304687 0.05320313 7.8125 0.0625 C8.81152344 0.07410156 9.81054688 0.08570313 10.83984375 0.09765625 C10.83984375 0.75765625 10.83984375 1.41765625 10.83984375 2.09765625 C9.84984375 2.09765625 8.85984375 2.09765625 7.83984375 2.09765625 C7.83984375 7.04765625 7.83984375 11.99765625 7.83984375 17.09765625 C5.19984375 17.09765625 2.55984375 17.09765625 -0.16015625 17.09765625 C-0.16015625 12.14765625 -0.16015625 7.19765625 -0.16015625 2.09765625 C-1.48015625 1.76765625 -2.80015625 1.43765625 -4.16015625 1.09765625 C-3.16015625 0.09765625 -3.16015625 0.09765625 0 0 Z " fill="#1C86EE" transform="translate(28.16015625,62.90234375)"/>
<path d="M0 0 C0.99 0.33 1.98 0.66 3 1 C3 7.27 3 13.54 3 20 C-2.28 20 -7.56 20 -13 20 C-13 16.7 -13 13.4 -13 10 C-12.67 10 -12.34 10 -12 10 C-12 11.98 -12 13.96 -12 16 C-6.555 15.505 -6.555 15.505 -1 15 C-0.67 10.05 -0.34 5.1 0 0 Z M-12 17 C-12 17.33 -12 17.66 -12 18 C-8.04 18 -4.08 18 0 18 C0 17.67 0 17.34 0 17 C-3.96 17 -7.92 17 -12 17 Z " fill="#7BD5E9" transform="translate(69,37)"/>
<path d="M0 0 C0.99 0 1.98 0 3 0 C3.15938672 14.02603124 2.67067454 27.9907504 2 42 C1.34 42 0.68 42 0 42 C0 28.14 0 14.28 0 0 Z " fill="#3CD2E5" transform="translate(83,38)"/>
<path d="M0 0 C0.99 0 1.98 0 3 0 C3.33 8.25 3.66 16.5 4 25 C3.34 25 2.68 25 2 25 C-0.24105897 19.61792923 -0.23693988 14.84254456 -0.125 9.125 C-0.11597656 8.24585938 -0.10695313 7.36671875 -0.09765625 6.4609375 C-0.07424577 4.3071729 -0.0383801 2.15354986 0 0 Z " fill="#45EDF8" transform="translate(72,38)"/>
<path d="M0 0 C0.99 0 1.98 0 3 0 C2.979375 0.99 2.95875 1.98 2.9375 3 C2.92647366 5.74555963 3.16246909 8.11923153 3.5625 10.875 C4.19422913 15.34974803 3.66884143 19.55477696 3 24 C2.01 24 1.02 24 0 24 C0 16.08 0 8.16 0 0 Z " fill="#0943B3" transform="translate(10,56)"/>
<path d="M0 0 C0.99 0 1.98 0 3 0 C3 2.97 3 5.94 3 9 C2.34 9 1.68 9 1 9 C0.67 16.59 0.34 24.18 0 32 C-0.66 31.67 -1.32 31.34 -2 31 C-2.20647466 9.17721711 -2.20647466 9.17721711 -1 1 C-0.67 0.67 -0.34 0.34 0 0 Z " fill="#0F9FEA" transform="translate(52,48)"/>
<path d="M0 0 C4.455 0.99 4.455 0.99 9 2 C9 2.99 9 3.98 9 5 C11.97 5.66 14.94 6.32 18 7 C16 9 16 9 13.875 9.3125 C9.90807967 8.88131301 6.69500457 7.50305271 3 6 C3 5.34 3 4.68 3 4 C1.329375 4.2784375 1.329375 4.2784375 -0.375 4.5625 C-4 5 -4 5 -6 4 C-6 3.34 -6 2.68 -6 2 C-4.02 2 -2.04 2 0 2 C0 1.34 0 0.68 0 0 Z " fill="#7C2ECE" transform="translate(17,29)"/>
<path d="M0 0 C1.31291016 -0.03867187 1.31291016 -0.03867187 2.65234375 -0.078125 C5.0625 0.25 5.0625 0.25 6.87890625 1.640625 C8.0625 3.25 8.0625 3.25 8.0625 5.25 C2.7825 5.25 -2.4975 5.25 -7.9375 5.25 C-7.6075 3.93 -7.2775 2.61 -6.9375 1.25 C-4.48367866 0.02308933 -2.73765897 0.04824069 0 0 Z M-1.9375 1.25 C2.0625 2.25 2.0625 2.25 2.0625 2.25 Z " fill="#85B7F7" transform="translate(15.9375,50.75)"/>
<path d="M0 0 C0.33 0.66 0.66 1.32 1 2 C2.89533342 2.46523063 2.89533342 2.46523063 5.0625 2.625 C6.361875 2.74875 7.66125 2.8725 9 3 C8.67 3.99 8.34 4.98 8 6 C6.80375 5.79375 5.6075 5.5875 4.375 5.375 C0.3431323 4.90024581 -2.27911367 5.17914073 -6 7 C-7.87519232 8.51705473 -9.64754667 10.08660806 -11.38671875 11.7578125 C-13 13 -13 13 -16 13 C-16 12.34 -16 11.68 -16 11 C-14.33333333 10 -12.66666667 9 -11 8 C-10.175 7.113125 -9.35 6.22625 -8.5 5.3125 C-6 3 -6 3 -3.1875 2.6875 C-2.465625 2.790625 -1.74375 2.89375 -1 3 C-0.67 2.01 -0.34 1.02 0 0 Z " fill="#6F2FC5" transform="translate(50,18)"/>
<path d="M0 0 C0.66 0 1.32 0 2 0 C4.48260659 7.60298267 4.18508331 15.10311193 4 23 C3.01 23 2.02 23 1 23 C0.67 15.41 0.34 7.82 0 0 Z " fill="#10A8DF" transform="translate(55,57)"/>
<path d="M0 0 C0.66 0.33 1.32 0.66 2 1 C1.50628906 1.45890625 1.01257812 1.9178125 0.50390625 2.390625 C-0.13675781 3.00421875 -0.77742188 3.6178125 -1.4375 4.25 C-2.07558594 4.85328125 -2.71367188 5.4565625 -3.37109375 6.078125 C-5.10021346 8.11823746 -5.51938277 9.41461074 -6 12 C-7 13 -7 13 -10.0625 13.0625 C-11.031875 13.041875 -12.00125 13.02125 -13 13 C-13 10.69 -13 8.38 -13 6 C-11.453125 6.185625 -11.453125 6.185625 -9.875 6.375 C-4.56149168 5.86078952 -3.39516057 3.97482213 0 0 Z " fill="#E8AAF6" transform="translate(40,21)"/>
<path d="M0 0 C-1.97769035 1.05947697 -3.74141601 1.94161007 -5.9375 2.4375 C-8.71983582 3.19631886 -10.67676125 4.28813987 -13 6 C-13.309375 6.86625 -13.61875 7.7325 -13.9375 8.625 C-14.288125 9.40875 -14.63875 10.1925 -15 11 C-18.125 11.8125 -18.125 11.8125 -21 12 C-21.66 11.01 -22.32 10.02 -23 9 C-21.2984375 8.5978125 -21.2984375 8.5978125 -19.5625 8.1875 C-18.386875 7.795625 -17.21125 7.40375 -16 7 C-15.67 6.01 -15.34 5.02 -15 4 C-10.2405324 -1.02158321 -6.56123257 -1.49642146 0 0 Z " fill="#672CBE" transform="translate(82,16)"/>
<path d="M0 0 C1.32 0 2.64 0 4 0 C4 4.95 4 9.9 4 15 C2.66666667 15 1.33333333 15 0 15 C0 10.05 0 5.1 0 0 Z " fill="#0C32A7" transform="translate(22,65)"/>
<path d="M0 0 C0.33 0 0.66 0 1 0 C1 14.52 1 29.04 1 44 C0.67 44 0.34 44 0 44 C0 29.48 0 14.96 0 0 Z " fill="#46F3FC" transform="translate(87,37)"/>
<path d="M0 0 C-0.99 0.33 -1.98 0.66 -3 1 C-3.73323796 3.01508358 -3.73323796 3.01508358 -4 5 C-6.31 5.66 -8.62 6.32 -11 7 C-10.34 4.69 -9.68 2.38 -9 0 C-2.25 -1.125 -2.25 -1.125 0 0 Z " fill="#E588FA" transform="translate(69,18)"/>
<path d="M0 0 C2.26171875 0.4609375 2.26171875 0.4609375 4.6875 1.375 C5.49574219 1.67148438 6.30398437 1.96796875 7.13671875 2.2734375 C7.75160156 2.51320313 8.36648437 2.75296875 9 3 C9 3.33 9 3.66 9 4 C4.46298506 5.45184478 0.81938524 6.23509196 -4 6 C-3.6875 4.125 -3.6875 4.125 -3 2 C-2.01 1.34 -1.02 0.68 0 0 Z " fill="#EC9BFB" transform="translate(46,13)"/>
<path d="M0 0 C0.99 0 1.98 0 3 0 C3 2.97 3 5.94 3 9 C2.34 9 1.68 9 1 9 C1 13.95 1 18.9 1 24 C0.67 24 0.34 24 0 24 C0 16.08 0 8.16 0 0 Z " fill="#0B4AD2" transform="translate(21,56)"/>
<path d="M0 0 C0.66 0 1.32 0 2 0 C2.33820166 1.5823006 2.67035939 3.16589375 3 4.75 C3.185625 5.63171875 3.37125 6.5134375 3.5625 7.421875 C4 10 4 10 4 14 C4.66 14.33 5.32 14.66 6 15 C4.35 15 2.7 15 1 15 C0.67 10.05 0.34 5.1 0 0 Z " fill="#0793E8" transform="translate(40,65)"/>
<path d="M0 0 C1.98 0 3.96 0 6 0 C6.66 1.32 7.32 2.64 8 4 C4.7 4 1.4 4 -2 4 C-1.34 2.68 -0.68 1.36 0 0 Z " fill="#F1A9FE" transform="translate(12,24)"/>
<path d="M0 0 C0.33 0 0.66 0 1 0 C1 4.62 1 9.24 1 14 C-3.29 14 -7.58 14 -12 14 C-12 11.69 -12 9.38 -12 7 C-11.67 7 -11.34 7 -11 7 C-11 8.98 -11 10.96 -11 13 C-7.37 13 -3.74 13 0 13 C0 8.71 0 4.42 0 0 Z " fill="#3A9BEA" transform="translate(37,48)"/>
<path d="M0 0 C1.98 0 3.96 0 6 0 C6 1.32 6 2.64 6 4 C10.60742865 2.78955868 10.60742865 2.78955868 15 1 C14.67 2.65 14.34 4.3 14 6 C7.25 6.125 7.25 6.125 5 5 C5 3.68 5 2.36 5 1 C3.35 1 1.7 1 0 1 C0 0.67 0 0.34 0 0 Z " fill="#A73EEB" transform="translate(21,30)"/>
<path d="M0 0 C2.625 0.75 2.625 0.75 5 2 C5.33 2.66 5.66 3.32 6 4 C4.68 3.67 3.36 3.34 2 3 C2 3.66 2 4.32 2 5 C0.02 5.33 -1.96 5.66 -4 6 C-3.6875 4.125 -3.6875 4.125 -3 2 C-2.01 1.34 -1.02 0.68 0 0 Z " fill="#E9A2FB" transform="translate(78,7)"/>
<path d="M0 0 C0.99 0 1.98 0 3 0 C3 2.97 3 5.94 3 9 C2.34 9 1.68 9 1 9 C0.67 9.66 0.34 10.32 0 11 C0 7.37 0 3.74 0 0 Z " fill="#0C91E8" transform="translate(52,48)"/>
<path d="M0 0 C0.33 0 0.66 0 1 0 C1.1875 2.375 1.1875 2.375 1 5 C-2 7 -2 7 -4.625 6.75 C-5.40875 6.5025 -6.1925 6.255 -7 6 C-7.33 5.34 -7.66 4.68 -8 4 C-6.865625 3.71125 -5.73125 3.4225 -4.5625 3.125 C-3.386875 2.75375 -2.21125 2.3825 -1 2 C-0.67 1.34 -0.34 0.68 0 0 Z " fill="#8936D9" transform="translate(67,21)"/>
<path d="M0 0 C0.33 0 0.66 0 1 0 C1 8.25 1 16.5 1 25 C0.67 25 0.34 25 0 25 C0 16.75 0 8.5 0 0 Z " fill="#2D569D" transform="translate(6,55)"/>
<path d="M0 0 C-0.33 1.32 -0.66 2.64 -1 4 C-3.875 4.125 -3.875 4.125 -7 4 C-7.66 3.34 -8.32 2.68 -9 2 C-3.375 0 -3.375 0 0 0 Z " fill="#9E35E6" transform="translate(84,12)"/>
<path d="M0 0 C1.32 0.33 2.64 0.66 4 1 C3.01 2.485 3.01 2.485 2 4 C-1.125 4.1875 -1.125 4.1875 -4 4 C-4 3.34 -4 2.68 -4 2 C-2.68 2 -1.36 2 0 2 C0 1.34 0 0.68 0 0 Z " fill="#DF61FD" transform="translate(31,30)"/>
<path d="M0 0 C2.64 0.33 5.28 0.66 8 1 C8 1.99 8 2.98 8 4 C5.36 3.34 2.72 2.68 0 2 C0 1.34 0 0.68 0 0 Z " fill="#6028BA" transform="translate(18,30)"/>
<path d="M0 0 C2.64 0.66 5.28 1.32 8 2 C8 2.66 8 3.32 8 4 C5.36 3.67 2.72 3.34 0 3 C0 2.01 0 1.02 0 0 Z " fill="#BE6BE3" transform="translate(51,17)"/>
<path d="M0 0 C4.62 0 9.24 0 14 0 C14 0.33 14 0.66 14 1 C9.38 1 4.76 1 0 1 C0 0.67 0 0.34 0 0 Z " fill="#76FEFE" transform="translate(71,34)"/>
<path d="M0 0 C3.96 0 7.92 0 12 0 C12 0.33 12 0.66 12 1 C8.04 1 4.08 1 0 1 C0 0.67 0 0.34 0 0 Z " fill="#4CADB6" transform="translate(72,83)"/>
<path d="M0 0 C3.96 0 7.92 0 12 0 C12 0.33 12 0.66 12 1 C8.04 1 4.08 1 0 1 C0 0.67 0 0.34 0 0 Z " fill="#2F88AF" transform="translate(57,83)"/>
<path d="M0 0 C3.96 0 7.92 0 12 0 C12 0.33 12 0.66 12 1 C8.04 1 4.08 1 0 1 C0 0.67 0 0.34 0 0 Z " fill="#296DB0" transform="translate(41,83)"/>
<path d="M0 0 C3.96 0 7.92 0 12 0 C12 0.33 12 0.66 12 1 C8.04 1 4.08 1 0 1 C0 0.67 0 0.34 0 0 Z " fill="#2851A5" transform="translate(26,83)"/>
<path d="M0 0 C3.96 0 7.92 0 12 0 C12 0.33 12 0.66 12 1 C8.04 1 4.08 1 0 1 C0 0.67 0 0.34 0 0 Z " fill="#263D75" transform="translate(10,83)"/>
<path d="M0 0 C3.96 0 7.92 0 12 0 C12 0.33 12 0.66 12 1 C8.04 1 4.08 1 0 1 C0 0.67 0 0.34 0 0 Z " fill="#8AD8FE" transform="translate(41,44)"/>
<path d="M0 0 C1.98 0 3.96 0 6 0 C6 0.33 6 0.66 6 1 C4.02 1 2.04 1 0 1 C0 0.67 0 0.34 0 0 Z " fill="#E7A3FA" transform="translate(61,16)"/>
<path d="M0 0 C1.65 0 3.3 0 5 0 C5 0.33 5 0.66 5 1 C3.35 1 1.7 1 0 1 C0 0.67 0 0.34 0 0 Z " fill="#7722D0" transform="translate(28,39)"/>
<path d="M0 0 C0.33 0 0.66 0 1 0 C1 1.65 1 3.3 1 5 C0.67 5 0.34 5 0 5 C0 3.35 0 1.7 0 0 Z " fill="#D075F7" transform="translate(8,26)"/>
<path d="M0 0 C1.65 0 3.3 0 5 0 C5 0.33 5 0.66 5 1 C3.35 1 1.7 1 0 1 C0 0.67 0 0.34 0 0 Z " fill="#ED9CFB" transform="translate(29,26)"/>
<path d="M0 0 C0.99 0.495 0.99 0.495 2 1 C1.01 2.485 1.01 2.485 0 4 C0 2.68 0 1.36 0 0 Z " fill="#8836DD" transform="translate(69,22)"/>
<path d="M0 0 C1.65 0 3.3 0 5 0 C5 0.33 5 0.66 5 1 C3.35 1 1.7 1 0 1 C0 0.67 0 0.34 0 0 Z " fill="#F7BDFE" transform="translate(12,22)"/>
<path d="M0 0 C1 4 1 4 1 4 Z " fill="#A143E6" transform="translate(37,31)"/>
<path d="M0 0 C0.66 0.33 1.32 0.66 2 1 C1.01 1 0.02 1 -1 1 C-0.67 0.67 -0.34 0.34 0 0 Z " fill="#6C13D9" transform="translate(42,26)"/>
<path d="M0 0 C1 4 1 4 1 4 Z " fill="#EF91FC" transform="translate(40,16)"/>
<path d="M0 0 C4 1 4 1 4 1 Z " fill="#C270EC" transform="translate(56,17)"/>
<path d="M0 0 C3 1 3 1 3 1 Z " fill="#8120CF" transform="translate(13,35)"/>
<path d="M0 0 C3 1 3 1 3 1 Z " fill="#8321C5" transform="translate(62,29)"/>
<path d="M0 0 C3 1 3 1 3 1 Z " fill="#5926B5" transform="translate(54,24)"/>
<path d="M0 0 C3 1 3 1 3 1 Z " fill="#5F1AB4" transform="translate(50,23)"/>
<path d="" fill="#9A4BE0" transform="translate(0,0)"/>
<path d="" fill="#EDA6FA" transform="translate(0,0)"/>
<path d="M0 0 C2 1 2 1 2 1 Z " fill="#713CE6" transform="translate(33,38)"/>
<path d="" fill="#792DE8" transform="translate(0,0)"/>
<path d="M0 0 C2 1 2 1 2 1 Z " fill="#7817C4" transform="translate(11,34)"/>
<path d="M0 0 C2 1 2 1 2 1 Z " fill="#4C11B0" transform="translate(18,33)"/>
<path d="M0 0 C2 1 2 1 2 1 Z " fill="#793BEA" transform="translate(65,28)"/>
<path d="M0 0 C2 1 2 1 2 1 Z " fill="#7839CF" transform="translate(46,25)"/>
<path d="M0 0 C2 1 2 1 2 1 Z " fill="#7115CC" transform="translate(48,24)"/>
<path d="M0 0 C2 1 2 1 2 1 Z " fill="#4B26BF" transform="translate(72,20)"/>
<path d="M0 0 C2 1 2 1 2 1 Z " fill="#7539B1" transform="translate(78,19)"/>
<path d="M0 0 C2 1 2 1 2 1 Z " fill="#7812AA" transform="translate(80,18)"/>
<path d="M0 0 C2 1 2 1 2 1 Z " fill="#4E0CAF" transform="translate(75,18)"/>
<path d="M0 0 C2 1 2 1 2 1 Z " fill="#A964EC" transform="translate(67,15)"/>
<path d="M0 0 C2 1 2 1 2 1 Z " fill="#F690FE" transform="translate(48,12)"/>
<path d="M0 0 C2 1 2 1 2 1 Z " fill="#FEC9FE" transform="translate(44,12)"/>
<path d="M0 0 C2 1 2 1 2 1 Z " fill="#F189FF" transform="translate(80,6)"/>
<path d="M0 0 C2 1 2 1 2 1 Z " fill="#FAC0FF" transform="translate(76,6)"/>
<path d="" fill="#358FA0" transform="translate(0,0)"/>
<path d="" fill="#1484B3" transform="translate(0,0)"/>
<path d="" fill="#1280D3" transform="translate(0,0)"/>
<path d="" fill="#0F62B6" transform="translate(0,0)"/>
<path d="" fill="#183C91" transform="translate(0,0)"/>
<path d="" fill="#2B50C1" transform="translate(0,0)"/>
<path d="" fill="#000B57" transform="translate(0,0)"/>
<path d="" fill="#375597" transform="translate(0,0)"/>
<path d="" fill="#041A55" transform="translate(0,0)"/>
<path d="" fill="#337281" transform="translate(0,0)"/>
<path d="" fill="#09ADDB" transform="translate(0,0)"/>
<path d="" fill="#001DBC" transform="translate(0,0)"/>
<path d="" fill="#00405B" transform="translate(0,0)"/>
<path d="" fill="#73CCF6" transform="translate(0,0)"/>
<path d="" fill="#BCEDFF" transform="translate(0,0)"/>
<path d="" fill="#2BAEF4" transform="translate(0,0)"/>
<path d="" fill="#4AD9FC" transform="translate(0,0)"/>
<path d="" fill="#8723D2" transform="translate(0,0)"/>
<path d="" fill="#844DD3" transform="translate(0,0)"/>
<path d="" fill="#7F46E1" transform="translate(0,0)"/>
<path d="" fill="#6A34CE" transform="translate(0,0)"/>
<path d="" fill="#773EB4" transform="translate(0,0)"/>
<path d="" fill="#751DE0" transform="translate(0,0)"/>
<path d="" fill="#4E23CD" transform="translate(0,0)"/>
<path d="" fill="#4F25D3" transform="translate(0,0)"/>
<path d="" fill="#7121E5" transform="translate(0,0)"/>
<path d="" fill="#621DDA" transform="translate(0,0)"/>
<path d="" fill="#D784E6" transform="translate(0,0)"/>
<path d="" fill="#7848BC" transform="translate(0,0)"/>
<path d="" fill="#A219FF" transform="translate(0,0)"/>
<path d="" fill="#8F30DC" transform="translate(0,0)"/>
<path d="" fill="#B71AF8" transform="translate(0,0)"/>
<path d="" fill="#8033E0" transform="translate(0,0)"/>
<path d="" fill="#5537B4" transform="translate(0,0)"/>
<path d="" fill="#D07BEA" transform="translate(0,0)"/>
<path d="" fill="#FFCEFE" transform="translate(0,0)"/>
<path d="" fill="#5D23D3" transform="translate(0,0)"/>
<path d="" fill="#D58DED" transform="translate(0,0)"/>
<path d="" fill="#D0AAFE" transform="translate(0,0)"/>
<path d="" fill="#FFE5FE" transform="translate(0,0)"/>
<path d="" fill="#D080F4" transform="translate(0,0)"/>
<path d="" fill="#F8A9FF" transform="translate(0,0)"/>
<path d="" fill="#FEF1FE" transform="translate(0,0)"/>
<path d="" fill="#CE87F0" transform="translate(0,0)"/>
<path d="" fill="#5E1FAD" transform="translate(0,0)"/>
<path d="" fill="#CE8BE8" transform="translate(0,0)"/>
<path d="" fill="#E099F4" transform="translate(0,0)"/>
<path d="" fill="#5427B1" transform="translate(0,0)"/>
<path d="" fill="#962DFF" transform="translate(0,0)"/>
<path d="" fill="#8835FF" transform="translate(0,0)"/>
<path d="" fill="#7521CA" transform="translate(0,0)"/>
<path d="" fill="#FDE4FF" transform="translate(0,0)"/>
<path d="" fill="#EB91FE" transform="translate(0,0)"/>
<path d="" fill="#FCE7FF" transform="translate(0,0)"/>
<path d="" fill="#BC62E5" transform="translate(0,0)"/>
<path d="" fill="#EDA4FE" transform="translate(0,0)"/>
<path d="" fill="#FCD7FE" transform="translate(0,0)"/>
<path d="" fill="#C799DE" transform="translate(0,0)"/>
<path d="" fill="#FFD0FE" transform="translate(0,0)"/>
<path d="" fill="#E58CFF" transform="translate(0,0)"/>
<path d="" fill="#DCA5F9" transform="translate(0,0)"/>
<path d="" fill="#FFE6FE" transform="translate(0,0)"/>
</svg>
